<?xml version="1.0" standalone="no"?>
<!DOCTYPE svg PUBLIC "-//W3C//DTD SVG 1.1//EN" "http://www.w3.org/Graphics/SVG/1.1/DTD/svg11.dtd" >
<svg>
<metadata>
Created by FontForge 20090622 at Tue Apr 21 08:02:19 2015
 By deploy user
Digital data &#194;&#169; 2005 Monotype Imaging Inc. All Rights Reserved.
</metadata>
<defs>
<font id="HelveticaLight" horiz-adv-x="1139" >
  <font-face 
    font-family="Helvetica-Light"
    font-weight="400"
    font-stretch="normal"
    units-per-em="2048"
    panose-1="2 11 4 4 2 2 2 3 2 4"
    ascent="1638"
    descent="-410"
    x-height="1056"
    cap-height="1590"
    bbox="-336 -512 2048 1971"
    underline-thickness="102"
    underline-position="-154"
    unicode-range="U+0020-U+FB02"
  />
<missing-glyph horiz-adv-x="1022" 
d="M76 0v1106h870v-1106h-870zM332 256h358v594h-358v-594z" />
    <glyph glyph-name=".notdef" horiz-adv-x="1022" 
d="M76 0v1106h870v-1106h-870zM332 256h358v594h-358v-594z" />
    <glyph glyph-name=".null" horiz-adv-x="0" 
 />
    <glyph glyph-name="nonmarkingreturn" horiz-adv-x="569" 
 />
    <glyph glyph-name="space" unicode=" " horiz-adv-x="569" 
 />
    <glyph glyph-name="exclam" unicode="!" horiz-adv-x="682" 
d="M294 372l-28 645v455h150v-455l-28 -645h-94zM266 0v180h150v-180h-150z" />
    <glyph glyph-name="quotedbl" unicode="&#x22;" horiz-adv-x="569" 
d="M346 1472h107v-464h-107v464zM119 1472h107v-464h-107v464z" />
    <glyph glyph-name="numbersign" unicode="#" 
d="M55 465v121h244v0l43 288v0h-229v121h245v0l66 429v0v0h123l-66 -429v0h279v0l66 429h121l-66 -429v0h207v-121h-225v0l-43 -288v0h215v-121h-233v0l-70 -465h-121l66 465v0h-275v0l-70 -465v0v0h-121v0l70 465v0h-226zM420 586v0h279v0l43 288v0h-277v0z" />
    <glyph glyph-name="dollar" unicode="$" 
d="M524 -190v160v0q-191 0 -320 119q-128 119 -128 329h133q0 -141 87 -234t228 -103v601v0q-221 51 -315 142q-94 92 -94 242q0 161 110 267t299 106v0v128h94v-128q201 0 300 -108t99 -250v-10h-133q0 107 -74 182t-192 75v-537v0l107 -30q172 -46 253 -141
q82 -94 82 -248v-20q0 -165 -118 -274q-117 -108 -324 -108v-160h-94zM524 1328q-118 0 -198 -71q-80 -70 -80 -187q0 -102 66 -166q67 -64 212 -96v0v520zM618 81q132 0 221 76q90 76 90 220q0 122 -78 189t-233 98v0v-583z" />
    <glyph glyph-name="percent" unicode="%" horiz-adv-x="1821" 
d="M448 -30l806 1469h106l-806 -1469h-106zM1003 336q0 141 99 241q100 100 242 100q137 0 236 -100q100 -99 100 -239q0 -142 -98 -240q-97 -98 -238 -98q-142 0 -242 98q-99 98 -99 238zM1120 337q0 -92 65 -156q66 -64 160 -64q90 0 154 64t64 156q0 98 -64 160
q-63 63 -151 63q-96 0 -162 -66q-66 -65 -66 -157zM144 1083q0 141 99 241t240 100q139 0 238 -100q100 -99 100 -239t-100 -239q-99 -99 -239 -99q-151 0 -245 98q-93 98 -93 238zM261 1084q0 -92 65 -156t158 -64q91 0 155 64q65 64 65 156t-65 157q-64 66 -153 66
q-95 0 -160 -66q-65 -65 -65 -157z" />
    <glyph glyph-name="ampersand" unicode="&#x26;" horiz-adv-x="1366" 
d="M441 853v0q-62 62 -112 149t-50 180q0 128 88 209q89 81 241 81v0q133 0 221 -82t88 -202q0 -99 -60 -185q-59 -85 -226 -186v0l374 -433v0q57 95 57 283h122v-18q0 -97 -26 -195t-74 -167v0l244 -287h-165l-149 177v0q-80 -100 -199 -158q-119 -57 -266 -57
q-211 0 -338 122q-126 122 -126 313q0 140 88 256t268 200zM511 764v0q-127 -57 -207 -158t-80 -214q0 -140 91 -230q92 -89 250 -89q125 0 225 65q101 65 148 137v0zM559 912v0q106 61 169 129q63 69 63 138q0 78 -54 130q-53 52 -134 52q-86 0 -142 -51q-56 -50 -56 -126
q0 -57 52 -138q52 -80 102 -134z" />
    <glyph glyph-name="quotesingle" unicode="'" horiz-adv-x="455" 
d="M176 1472h107v-464h-107v464z" />
    <glyph glyph-name="parenleft" unicode="(" horiz-adv-x="682" 
d="M484 -387q-168 213 -262 449q-95 235 -95 507q0 251 85 477q84 226 272 465h105q-320 -463 -320 -956q0 -478 320 -942h-105z" />
    <glyph glyph-name="parenright" unicode=")" horiz-adv-x="682" 
d="M198 1511q168 -213 262 -449q95 -235 95 -507q0 -251 -85 -477q-84 -226 -272 -465h-105q320 463 320 956q0 478 -320 942h105z" />
    <glyph glyph-name="asterisk" unicode="*" horiz-adv-x="797" 
d="M91 1241l37 87l235 -96v240h86v-240l242 96l30 -90l-242 -85v0l159 -221l-79 -48l-157 224v0l-156 -224l-72 56l154 213v0z" />
    <glyph glyph-name="plus" unicode="+" horiz-adv-x="1352" 
d="M160 580h448v448h127v-448h448v-127h-448v-448h-127v448h-448v127z" />
    <glyph glyph-name="comma" unicode="," horiz-adv-x="569" 
d="M208 -196v0q23 9 47 41t24 101v54h-71v176h150v-235q0 -178 -150 -213v0v76z" />
    <glyph glyph-name="hyphen" unicode="-" horiz-adv-x="682" 
d="M80 595h512v-127h-512v127z" />
    <glyph glyph-name="period" unicode="." horiz-adv-x="569" 
d="M208 180h150v-180h-150v180z" />
    <glyph glyph-name="slash" unicode="/" horiz-adv-x="569" 
d="M-7 -184l478 1694h114l-478 -1694h-114z" />
    <glyph glyph-name="zero" unicode="0" 
d="M80 710q0 375 119 552t374 177q239 0 362 -186q124 -185 124 -566q0 -362 -123 -540q-122 -177 -363 -177q-253 0 -373 177q-120 178 -120 563zM211 695q0 -327 90 -471q90 -143 271 -143q168 0 262 150q94 151 94 478q0 345 -94 482q-93 137 -265 137q-358 0 -358 -633z
" />
    <glyph glyph-name="one" unicode="1" 
d="M240 1157q204 4 290 75q86 72 103 207h106v-1439h-131v1071h-368v86z" />
    <glyph glyph-name="two" unicode="2" 
d="M98 0q0 160 63 288q64 129 319 285l256 161q99 60 139 136t40 157q0 139 -89 220t-226 81q-143 0 -234 -101q-90 -100 -90 -268v0h-135v0q0 217 130 348q130 132 346 132q186 0 304 -96q137 -109 137 -303q0 -269 -273 -425l-225 -131q-176 -105 -250 -191
q-73 -85 -73 -182v0h809v-111h-948v0z" />
    <glyph glyph-name="three" unicode="3" 
d="M70 418h131v0q0 -143 91 -240q92 -97 265 -97q159 0 260 85t101 240q0 133 -97 212q-101 80 -286 80h-81v0v111v0q221 0 317 65q96 66 96 205q0 118 -84 183q-83 66 -222 66q-133 0 -222 -84t-89 -221h-131q10 172 127 294t337 122q192 0 303 -96q112 -96 112 -257
q0 -237 -207 -316q258 -79 258 -359q0 -181 -128 -311t-342 -130q-243 0 -368 108q-124 109 -141 340v0z" />
    <glyph glyph-name="four" unicode="4" 
d="M74 469l665 955h119v-957h201v-111h-201v-356h-131v356h-653v113zM205 467v0h522v761v0z" />
    <glyph glyph-name="five" unicode="5" 
d="M72 370h131v0q24 -149 120 -219t233 -70q154 0 251 103t97 259q0 171 -102 272t-257 101q-192 0 -312 -145l-108 14l117 739h715v-111h-605v0l-90 -481q141 95 317 95q204 0 330 -129q126 -128 126 -350q0 -213 -123 -346q-123 -132 -336 -132q-219 0 -356 101
q-137 102 -148 299v0z" />
    <glyph glyph-name="six" unicode="6" 
d="M215 683q66 106 160 168t217 62q222 0 338 -127q117 -126 117 -345q0 -203 -128 -337q-127 -134 -327 -134q-239 0 -374 170q-134 171 -134 513q0 365 131 575q131 211 390 211q181 0 290 -95t129 -257h-135q-47 241 -271 241q-207 0 -298 -167q-91 -166 -105 -478z
M264 439q0 -164 87 -261t239 -97q155 0 240 101q86 102 86 268q0 180 -82 266q-81 86 -239 86q-147 0 -239 -104t-92 -259z" />
    <glyph glyph-name="seven" unicode="7" 
d="M318 0q4 222 169 616t391 677v0h-750v131h912v-122q-227 -245 -396 -626q-168 -381 -183 -676h-143z" />
    <glyph glyph-name="eight" unicode="8" 
d="M339 775q-93 43 -147 118q-54 76 -54 191q0 145 114 250t292 105q219 0 332 -94q113 -93 113 -260q0 -100 -51 -186q-50 -85 -146 -132q113 -40 187 -133t74 -225q0 -213 -138 -326t-370 -113q-208 0 -332 122q-123 123 -123 303q0 279 249 380zM221 398q0 -133 92 -225
q93 -92 267 -92q137 0 239 87q103 87 103 237q0 138 -92 219t-253 81q-177 0 -267 -86q-89 -85 -89 -221zM269 1070q0 -119 84 -187q84 -67 222 -67t210 70q73 70 73 208q0 114 -75 174q-74 60 -217 60q-136 0 -217 -72q-80 -71 -80 -186z" />
    <glyph glyph-name="nine" unicode="9" 
d="M109 322h135q22 -122 88 -182q66 -59 180 -59q194 0 294 155q100 156 110 493q-130 -233 -377 -233q-201 0 -328 117q-127 118 -127 351q0 209 119 342t340 133q504 0 504 -717q0 -315 -132 -534q-131 -218 -388 -218q-187 0 -297 96q-110 97 -121 256zM215 965
q0 -157 90 -258q91 -100 245 -100q142 0 228 95q87 95 87 271q0 155 -85 255q-84 100 -240 100q-158 0 -242 -101q-83 -101 -83 -262z" />
    <glyph glyph-name="colon" unicode=":" horiz-adv-x="569" 
d="M208 1007h150v-180h-150v180zM208 180h150v-180h-150v180z" />
    <glyph glyph-name="semicolon" unicode=";" horiz-adv-x="569" 
d="M208 -196v0q23 9 47 41t24 101v54h-71v176h150v-235q0 -178 -150 -213v0v76zM208 1007h150v-180h-150v180z" />
    <glyph glyph-name="less" unicode="&#x3c;" horiz-adv-x="1352" 
d="M168 474l1024 -481v131l-864 404v0l864 373v131l-1024 -448v-110z" />
    <glyph glyph-name="equal" unicode="=" horiz-adv-x="1352" 
d="M160 380h1024v-127h-1024v127zM160 779h1024v-127h-1024v127z" />
    <glyph glyph-name="greater" unicode="&#x3e;" horiz-adv-x="1352" 
d="M1184 474l-1024 -481v131l864 404v0l-864 373v131l1024 -448v-110z" />
    <glyph glyph-name="question" unicode="?" horiz-adv-x="1024" 
d="M425 180h150v-180h-150v180zM75 1096q0 185 128 299q128 115 319 115q206 0 326 -104q121 -104 121 -283q0 -83 -51 -161q-51 -77 -172 -186q-105 -94 -148 -170q-42 -76 -42 -190v-44h-119v48q0 126 43 216q43 91 163 205q96 91 145 157q50 66 50 145q0 114 -89 185
q-89 72 -227 72q-147 0 -234 -94t-87 -252h-125q-1 16 -1 42z" />
    <glyph glyph-name="at" unicode="@" horiz-adv-x="1638" 
d="M1264 1158l-201 -607q-23 -73 -23 -115q0 -22 16 -37q17 -14 46 -14q104 0 213 148q109 149 109 343q0 230 -161 380q-160 151 -421 151q-267 0 -458 -193q-191 -192 -191 -485q0 -281 192 -470q192 -188 464 -188q158 0 300 74q143 75 235 207h121q-95 -180 -275 -282
t-382 -102q-324 0 -546 224q-222 225 -222 553q0 313 217 539t540 226q314 0 507 -188q193 -187 193 -452q0 -229 -149 -410t-336 -181q-131 0 -172 101v0q-99 -96 -234 -96q-125 0 -201 81t-76 219q0 242 152 428q152 187 351 187q80 0 138 -33t87 -95l31 87h136zM870 1078
q-139 0 -242 -161t-103 -320q0 -79 40 -132q41 -52 115 -52q123 0 225 177q103 178 103 340q0 69 -40 108q-40 40 -98 40z" />
    <glyph glyph-name="A" unicode="A" horiz-adv-x="1366" 
d="M30 0l576 1472h157l576 -1472h-144l-174 460v0h-675v0l-172 -460h-144zM393 579v0h580v0l-294 772v0zM690 1590zM1211 0zM0 1510z" />
    <glyph glyph-name="B" unicode="B" horiz-adv-x="1366" 
d="M165 0v1472h529q490 0 490 -370q0 -133 -69 -216q-69 -82 -170 -100q149 -26 227 -120q79 -93 79 -261q0 -405 -475 -405h-611zM304 119h363q274 0 359 68q86 69 86 228q0 176 -130 242q-95 49 -290 49h-388v-587zM304 825h365q376 0 376 278q0 144 -101 197
q-100 53 -296 53h-344v-528z" />
    <glyph glyph-name="C" unicode="C" horiz-adv-x="1479" 
d="M1227 490h146q-50 -244 -210 -386q-159 -142 -428 -142q-297 0 -467 199q-170 200 -170 575q0 374 173 574q174 200 516 200q244 0 388 -131q144 -130 182 -333h-144q-33 161 -143 253t-322 92q-240 0 -376 -174q-135 -174 -135 -481q0 -308 131 -482q132 -173 391 -173
q179 0 305 109t163 300zM745 1590zM740 0z" />
    <glyph glyph-name="D" unicode="D" horiz-adv-x="1479" 
d="M165 0v1472h506h74q322 0 476 -200q155 -200 155 -536q0 -736 -686 -736h-525zM304 119h346q307 0 447 151q140 152 140 471q0 308 -131 460t-441 152h-361v-1234zM657 1590zM0 1510z" />
    <glyph glyph-name="E" unicode="E" horiz-adv-x="1251" 
d="M146 0v1472h987v-119h-848v-528h765v-119h-765v-587h868v-119h-1007zM640 1590zM640 0zM0 1510z" />
    <glyph glyph-name="F" unicode="F" 
d="M152 0v1472h955v-119h-816v-528h742v-119h-742v-706h-139z" />
    <glyph glyph-name="G" unicode="G" horiz-adv-x="1593" 
d="M781 640v119h635v-759h-120v250q-171 -288 -538 -288q-307 0 -478 208q-171 209 -171 572q0 342 175 555t495 213q251 0 411 -118t209 -346v0h-144v0q-31 148 -154 246q-123 99 -302 99q-265 0 -408 -177t-143 -524q0 -272 144 -441q144 -168 387 -168q231 0 364 153
q134 154 134 406h-496zM774 1590zM759 0z" />
    <glyph glyph-name="H" unicode="H" horiz-adv-x="1479" 
d="M163 1472h139v-632h869v632h139v-1472h-139v721h-869v-721h-139v1472z" />
    <glyph glyph-name="I" unicode="I" horiz-adv-x="569" 
d="M215 1472h139v-1472h-139v1472zM301 1590zM285 0zM0 1510z" />
    <glyph glyph-name="J" unicode="J" horiz-adv-x="1024" 
d="M46 474h139v-19q0 -194 62 -281q63 -86 211 -86q126 0 193 75q67 76 67 249v1060h139v-1074q0 -222 -107 -329q-106 -107 -311 -107q-195 0 -294 120t-99 392z" />
    <glyph glyph-name="K" unicode="K" horiz-adv-x="1366" 
d="M174 0v1472h139v-765v0l755 765h157l-585 -592v0l687 -880h-170l-615 799v0l-229 -230v-569h-139zM732 0z" />
    <glyph glyph-name="L" unicode="L" 
d="M165 1472h139v-1353h784v-119h-923v1472zM280 1590zM627 0zM0 1510z" />
    <glyph glyph-name="M" unicode="M" horiz-adv-x="1706" 
d="M159 1472h213l481 -1305v0l472 1305h213v-1472h-139v1323v0l-485 -1323h-131l-485 1323v0v-1323h-139v1472z" />
    <glyph glyph-name="N" unicode="N" horiz-adv-x="1479" 
d="M161 1472h157l851 -1288v0v1288h139v-1472h-161l-847 1294v0v-1294h-139v1472zM743 1590zM743 0zM0 1510z" />
    <glyph glyph-name="O" unicode="O" horiz-adv-x="1593" 
d="M109 730q0 359 187 569q187 211 493 211q323 0 507 -209t184 -571q0 -342 -184 -555t-502 -213q-322 0 -504 214q-181 215 -181 554zM248 731q0 -303 147 -477q147 -173 400 -173q251 0 398 173q148 174 148 482q0 312 -146 483q-145 172 -405 172q-252 0 -397 -180
q-145 -179 -145 -480zM795 1590z" />
    <glyph glyph-name="P" unicode="P" horiz-adv-x="1251" 
d="M157 1472h541q478 0 478 -413q0 -407 -564 -407h-316v-652h-139v1472zM296 1353v-582h324q242 0 329 73q88 74 88 227q0 282 -391 282h-350z" />
    <glyph glyph-name="Q" unicode="Q" horiz-adv-x="1593" 
d="M1250 137v0l195 -149l-78 -95l-220 171v0q-157 -102 -364 -102q-319 0 -502 210t-183 558q0 353 183 566q183 214 497 214q323 0 507 -210t184 -568q0 -191 -55 -341t-164 -254zM943 373l199 -154v0q78 52 133 188t55 325q0 293 -145 476q-144 183 -406 183
q-252 0 -397 -178t-145 -482q0 -305 145 -478q146 -172 404 -172q144 0 253 65v0l-170 131z" />
    <glyph glyph-name="R" unicode="R" horiz-adv-x="1366" 
d="M1257 0h-154q-28 45 -40 211q-9 96 -16 194q-11 123 -39 164q-38 51 -87 73q-60 25 -170 25h-449v-667h-139v1472h580q263 0 383 -98t120 -296q0 -253 -242 -353q122 -40 155 -160q33 -119 44 -342q8 -176 54 -208v-15zM1107 1078q0 275 -355 275h-450v-567h440
q156 0 260 70q105 71 105 222zM628 1590zM700 0zM0 1510z" />
    <glyph glyph-name="S" unicode="S" horiz-adv-x="1251" 
d="M96 442h135v0q9 -163 115 -262q107 -99 306 -99q170 0 273 78q104 78 104 218q0 97 -62 164q-62 68 -195 108l-335 95q-309 92 -309 368q0 174 139 286q140 112 361 112q232 0 362 -121t130 -327v0h-135v0q0 156 -96 242q-96 87 -260 87q-159 0 -261 -73
q-101 -73 -101 -212q0 -190 281 -263l222 -59q197 -50 297 -148q101 -97 101 -245q0 -200 -140 -315q-139 -114 -396 -114q-248 0 -392 128t-144 352v0zM632 1590zM636 0z" />
    <glyph glyph-name="T" unicode="T" 
d="M32 1472h1067v-119h-464v-1353h-139v1353h-464v119zM566 1590zM566 0zM0 1510z" />
    <glyph glyph-name="U" unicode="U" horiz-adv-x="1479" 
d="M168 1472h139v-864q0 -297 112 -412t326 -115q213 0 322 115q109 116 109 401v875h139v-926q0 -292 -154 -438q-153 -146 -415 -146q-289 0 -434 150q-144 151 -144 440v920zM742 1590zM742 0zM0 1510z" />
    <glyph glyph-name="V" unicode="V" horiz-adv-x="1251" 
d="M622 161v0l442 1311h146l-512 -1472h-154l-512 1472h146z" />
    <glyph glyph-name="W" unicode="W" horiz-adv-x="1821" 
d="M32 1472h139l325 -1282v0l336 1282h157l335 -1282v0l321 1282h144l-384 -1472h-154l-343 1311v0l-338 -1311h-154z" />
    <glyph glyph-name="X" unicode="X" horiz-adv-x="1251" 
d="M37 0l505 759v0l-485 713h161l404 -621v0l404 621h163l-483 -713v0l503 -759h-160l-427 650v0l-428 -650h-157z" />
    <glyph glyph-name="Y" unicode="Y" horiz-adv-x="1251" 
d="M16 1472h159l436 -707v0l439 707h161l-528 -828v-644h-139v633zM614 1590zM0 1510z" />
    <glyph glyph-name="Z" unicode="Z" horiz-adv-x="1251" 
d="M63 0v115l948 1238v0h-870v119h1042v-115l-948 -1238v0h955v-119h-1127zM662 1590zM0 1510z" />
    <glyph glyph-name="bracketleft" unicode="[" horiz-adv-x="682" 
d="M211 1511h387v-101h-256v-1696h251v-101h-382v1898z" />
    <glyph glyph-name="backslash" unicode="\" horiz-adv-x="569" 
d="M457 -192l-478 1702h114l478 -1702h-114z" />
    <glyph glyph-name="bracketright" unicode="]" horiz-adv-x="682" 
d="M471 -387h-387v101h256v1696h-251v101h382v-1898z" />
    <glyph glyph-name="asciicircum" unicode="^" horiz-adv-x="1352" 
d="M263 504h-119l480 928h106l480 -928h-117l-418 805v0z" />
    <glyph glyph-name="underscore" unicode="_" horiz-adv-x="1024" 
d="M0 -254v103h1024v-103h-1024z" />
    <glyph glyph-name="grave" unicode="`" horiz-adv-x="682" 
d="M376 1168l-280 288h160l224 -288h-104zM384 1168z" />
    <glyph glyph-name="a" unicode="a" 
d="M144 732q10 156 116 254q107 98 315 98q386 0 386 -332v-572q0 -61 15 -79t46 -18q28 0 68 19v-96q-46 -21 -97 -21h-6q-76 0 -112 40q-35 41 -35 125q-152 -178 -393 -178q-158 0 -256 81q-97 82 -97 224q0 266 372 315l183 27q154 21 171 52q18 32 18 93
q0 209 -260 209q-277 0 -309 -241h-125zM838 556q-111 -45 -302 -58q-153 -9 -232 -64q-79 -54 -79 -159q0 -89 64 -141q65 -51 163 -51q174 0 280 83q106 84 106 224v166zM573 1164zM934 0z" />
    <glyph glyph-name="b" unicode="b" horiz-adv-x="1251" 
d="M161 0v1472h123v-580q129 192 378 192q220 0 345 -156q125 -155 125 -404q0 -270 -125 -411t-345 -141q-135 0 -233 65q-97 65 -145 159v-196h-123zM284 525q0 -199 98 -321q99 -121 261 -121q160 0 259 113t99 311q0 207 -91 336q-90 130 -265 130q-157 0 -259 -124
q-102 -123 -102 -324z" />
    <glyph glyph-name="c" unicode="c" 
d="M909 372h131q-33 -193 -148 -297q-115 -103 -309 -103h-8q-221 0 -350 147q-129 148 -129 405q0 240 131 400t356 160q185 0 298 -90q114 -89 146 -278v0h-131v0q-70 257 -316 257q-154 0 -254 -122q-99 -122 -99 -326q0 -197 95 -320q95 -122 267 -122q133 0 218 81
t102 208zM591 1164zM591 0z" />
    <glyph glyph-name="d" unicode="d" horiz-adv-x="1251" 
d="M963 892v580h123v-1472h-123v196q-49 -100 -152 -162q-102 -62 -226 -62q-213 0 -342 144q-128 144 -128 408q0 245 125 402q126 158 345 158q253 0 378 -192zM246 507q0 -184 94 -304q95 -120 265 -120q160 0 259 120q99 121 99 322q0 194 -97 321t-264 127
q-159 0 -258 -120q-98 -119 -98 -346z" />
    <glyph glyph-name="e" unicode="e" 
d="M223 501v0q0 -192 98 -305t264 -113q116 0 201 64q86 65 114 177h131q-43 -152 -158 -252q-114 -100 -284 -100h-16q-224 0 -353 145q-128 146 -128 407q0 242 134 401q135 159 351 159q221 0 341 -150q121 -149 121 -433v0h-816zM223 604h685v0q0 161 -89 265t-240 104
q-145 0 -240 -100q-94 -99 -116 -269zM569 1164zM577 0z" />
    <glyph glyph-name="f" unicode="f" horiz-adv-x="569" 
d="M32 1056h160v166q0 137 55 207q56 71 170 71q70 0 106 -8v-113q-38 10 -77 10q-131 0 -131 -157v-176h208v-103h-208v-953h-123v953h-160v103z" />
    <glyph glyph-name="g" unicode="g" horiz-adv-x="1251" 
d="M147 -129h131q22 -92 105 -143q83 -50 217 -50q191 0 281 110t90 368v16q-50 -84 -148 -142t-233 -58q-221 0 -348 155t-127 401q0 278 129 417q130 139 332 139h21q121 0 221 -60q101 -59 153 -161v193h123v-954q0 -272 -125 -404q-125 -131 -371 -131q-203 0 -321 87
q-118 88 -130 217zM246 535q0 -214 98 -333t267 -119q157 0 258 130q102 130 102 312q0 208 -98 328q-97 120 -262 120q-163 0 -264 -113t-101 -325zM593 1164z" />
    <glyph glyph-name="h" unicode="h" 
d="M148 1472h123v-564q150 176 343 176q172 0 274 -94q103 -93 103 -262v-728h-123v699q0 274 -273 274q-136 0 -230 -97t-94 -287v-589h-123v1472z" />
    <glyph glyph-name="i" unicode="i" horiz-adv-x="455" 
d="M165 1056h123v-1056h-123v1056zM159 1463h135v-183h-135v183zM228 0z" />
    <glyph glyph-name="j" unicode="j" horiz-adv-x="455" 
d="M181 -167v1223h123v-1231q0 -134 -57 -188q-56 -53 -157 -53q-37 0 -80 8v108q8 0 24 -3q18 -2 31 -2q116 0 116 138zM175 1463h135v-183h-135v183z" />
    <glyph glyph-name="k" unicode="k" horiz-adv-x="1024" 
d="M140 0v1472h123v-919v0l521 503h167l-400 -380v0l448 -676h-136l-395 590v0l-205 -190v-400h-123zM563 0z" />
    <glyph glyph-name="l" unicode="l" horiz-adv-x="455" 
d="M165 0v1472h123v-1472h-123zM227 1552zM227 0z" />
    <glyph glyph-name="m" unicode="m" horiz-adv-x="1706" 
d="M131 1056h123v-164q100 192 337 192q231 0 302 -208q103 208 344 208q169 0 249 -96t80 -302v-686h-123v726q0 128 -58 187q-57 60 -165 60q-142 0 -226 -103t-84 -292v-578h-123v730v12q0 231 -223 231q-132 0 -221 -101q-89 -100 -89 -290v-582h-123v1056z" />
    <glyph glyph-name="n" unicode="n" 
d="M148 0v1056h123v-148q139 176 340 176q175 0 277 -93q103 -92 103 -263v-728h-123v703q0 136 -68 203t-200 67q-148 0 -239 -101q-90 -101 -90 -275v-597h-123zM576 1164zM570 0z" />
    <glyph glyph-name="o" unicode="o" 
d="M79 528q0 251 132 403q132 153 358 153q227 0 358 -150t131 -406q0 -248 -135 -402q-134 -154 -343 -154q-233 0 -367 150q-134 151 -134 406zM210 525q0 -206 96 -324q97 -118 265 -118q166 0 261 119q95 120 95 329q0 202 -90 322t-266 120q-171 0 -266 -123
q-95 -122 -95 -325zM572 1164z" />
    <glyph glyph-name="p" unicode="p" horiz-adv-x="1251" 
d="M284 860q53 105 153 164q100 60 225 60q224 0 347 -143q123 -142 123 -409q0 -250 -127 -405t-343 -155q-126 0 -223 50q-96 51 -155 142v-580h-123v1472h123v-196zM284 531q0 -191 98 -320q99 -128 263 -128q154 0 255 114q101 115 101 352q0 192 -101 308
q-100 116 -258 116q-153 0 -256 -115q-102 -115 -102 -327z" />
    <glyph glyph-name="q" unicode="q" horiz-adv-x="1251" 
d="M963 860v196h123v-1472h-123v596q-58 -94 -154 -151t-224 -57q-215 0 -343 155q-127 156 -127 410q0 252 121 399q121 148 349 148q122 0 222 -60q101 -59 156 -164zM246 549q0 -219 96 -343q97 -123 260 -123q145 0 253 114q108 115 108 334q0 193 -95 317
q-95 125 -264 125q-159 0 -259 -116q-99 -116 -99 -308z" />
    <glyph glyph-name="r" unicode="r" horiz-adv-x="682" 
d="M154 1056h123v-206q46 127 124 180q78 54 228 54v-125h-10q-342 0 -342 -438v-521h-123v1056zM386 1164zM215 0z" />
    <glyph glyph-name="s" unicode="s" horiz-adv-x="1024" 
d="M87 340h127v0q49 -257 312 -257q108 0 183 51t75 141q0 72 -65 122q-64 50 -245 89q-208 45 -285 109t-77 182q0 145 104 226q105 81 263 81q175 0 279 -81t130 -255v0h-127v0q-29 225 -277 225q-113 0 -177 -48q-64 -47 -64 -132q0 -68 61 -117q62 -49 230 -87
q226 -53 303 -120q78 -67 78 -186q0 -146 -113 -229q-113 -82 -311 -82q-166 0 -279 103q-113 104 -125 265v0zM481 1164zM500 0z" />
    <glyph glyph-name="t" unicode="t" horiz-adv-x="569" 
d="M42 1056h150v288h123v-288h192v-103h-192v-758v-14q0 -46 19 -72q20 -26 93 -26q55 0 96 16v-103q-21 -6 -70 -15q-48 -9 -68 -9q-94 0 -144 47q-49 47 -49 159v9v766h-150v103zM362 0z" />
    <glyph glyph-name="u" unicode="u" 
d="M148 1056h123v-703q0 -134 66 -202t202 -68q137 0 233 94q96 95 96 282v597h123v-1056h-123v148q-145 -176 -340 -176q-176 0 -278 91q-102 92 -102 265v728zM570 1164zM843 0zM0 1084z" />
    <glyph glyph-name="v" unicode="v" horiz-adv-x="1024" 
d="M503 153v0l348 903h133l-416 -1056h-136l-400 1056h133z" />
    <glyph glyph-name="w" unicode="w" horiz-adv-x="1479" 
d="M31 1056h123l271 -899v0l246 899h136l228 -891v0l287 891h125l-352 -1056h-131l-228 891v0l-237 -891h-148z" />
    <glyph glyph-name="x" unicode="x" horiz-adv-x="1024" 
d="M37 0l404 545v0l-371 511h152l290 -421v0l297 421h156l-380 -511v0l393 -545h-148l-317 458v0l-326 -458h-150z" />
    <glyph glyph-name="y" unicode="y" horiz-adv-x="1024" 
d="M128 -402v111q54 -14 96 -14q79 0 121 80q43 80 87 234v0v0l-400 1047h136l332 -891v0l343 891h133l-432 -1156q-71 -186 -147 -251q-75 -65 -152 -65q-78 0 -117 14zM508 1164zM0 1084z" />
    <glyph glyph-name="z" unicode="z" horiz-adv-x="1024" 
d="M67 0v107l706 846v0h-658v103h816v-107l-706 -846v0h733v-103h-891zM523 1164zM0 1084z" />
    <glyph glyph-name="braceleft" unicode="{" horiz-adv-x="682" 
d="M80 562q112 22 144 84t32 178v410q0 147 61 216q61 70 243 70v0q-88 -28 -131 -87q-42 -58 -42 -171v-422q0 -240 -176 -278v0q112 -31 144 -104q32 -72 32 -195v-407q0 -192 173 -240v0h-15q-160 0 -225 66q-64 67 -64 244v395q0 101 -27 151t-149 90v0z" />
    <glyph glyph-name="bar" unicode="|" horiz-adv-x="455" 
d="M160 1536h123v-2048h-123v2048z" />
    <glyph glyph-name="braceright" unicode="}" horiz-adv-x="682" 
d="M592 568q-119 -34 -148 -87q-28 -52 -28 -155v-394q0 -172 -62 -244q-61 -72 -242 -72v0q81 20 127 80q46 61 46 162v404q0 128 34 203t142 103v0q-90 16 -133 75q-43 60 -43 200v420q0 201 -173 257v0q190 0 247 -67t57 -216v-408q0 -133 38 -186q38 -52 138 -75v0z" />
    <glyph glyph-name="asciitilde" unicode="~" horiz-adv-x="1352" 
d="M160 455q128 211 287 211v0q91 0 240 -72q150 -72 206 -72h6v0h6q59 0 110 54q51 55 86 122l83 -69q-115 -222 -280 -222q-91 0 -242 72q-150 72 -212 72q-117 0 -221 -192z" />
    <glyph glyph-name="exclamdown" unicode="&#xa1;" horiz-adv-x="682" 
d="M388 720l28 -645v-455h-150v455l28 645h94zM416 1092v-180h-150v180h150z" />
    <glyph glyph-name="cent" unicode="&#xa2;" 
d="M349 16v0q-120 55 -189 180q-68 125 -68 325q0 250 130 406q131 156 355 156q62 0 118 -11v0l85 251v0h96l-89 -279v0q93 -38 153 -117q61 -79 83 -212v0h-131q-15 61 -53 120q-37 60 -93 92v0l-272 -831v0q52 -15 112 -15q134 0 218 77q85 78 104 212h131
q-31 -190 -150 -295t-311 -105q-72 0 -141 15v0l-89 -271v0h-96zM390 140v0l272 823v0q-39 9 -86 9q-163 0 -258 -128q-95 -127 -95 -321q0 -155 48 -248q49 -92 119 -135z" />
    <glyph glyph-name="sterling" unicode="&#xa3;" 
d="M152 -9l-72 119q217 156 217 362q0 98 -43 188v0h-203v86h166v0q-46 78 -77 154t-31 161q0 166 125 272t337 106v0q207 0 334 -125q128 -124 128 -323v0h-135v0q-4 155 -93 246q-88 91 -231 91q-135 0 -235 -71q-99 -71 -99 -201q0 -70 37 -143q38 -72 96 -167v0h340v-86
h-309v0q24 -73 24 -146q0 -93 -49 -182q-48 -89 -150 -199v0q126 58 197 58q96 0 198 -45q104 -45 172 -45q104 0 222 116l72 -104q-75 -68 -152 -106q-77 -37 -200 -37q-57 0 -172 45q-117 45 -190 45q-60 0 -111 -20q-50 -19 -113 -49z" />
    <glyph glyph-name="currency" unicode="&#xa4;" 
d="M58 1008l106 109l96 -91v0q137 101 309 101v0q154 0 299 -101v0l94 91l106 -111l-88 -88v0q96 -142 96 -309v0q0 -159 -96 -301v0l88 -84l-110 -109l-91 86v0q-136 -101 -312 -101v0q-152 0 -299 101v0l-92 -86l-106 109l91 86v0q-101 149 -101 304v0q0 173 100 305v0z
M196 611q0 -153 102 -259q103 -105 261 -105q162 0 265 105q104 106 104 264q0 155 -107 259q-107 105 -253 105q-153 0 -263 -99q-109 -99 -109 -270z" />
    <glyph glyph-name="yen" unicode="&#xa5;" 
d="M627 557h368v-111h-368v-446h-131v446h-368v111h368v86l-79 138v0h-289v111h219v0l-347 577h156l403 -706v0l415 706h149l-347 -577v0h219v-111h-289v0l-79 -138v-86z" />
    <glyph glyph-name="brokenbar" unicode="&#xa6;" horiz-adv-x="455" 
d="M283 -362h-123v720h123v-720zM160 1382h123v-720h-123v720z" />
    <glyph glyph-name="section" unicode="&#xa7;" 
d="M191 1v0h126v0q0 -129 67 -194q67 -64 189 -64q98 0 163 51q66 52 66 138q0 91 -72 160q-71 70 -280 190q-171 101 -262 195q-90 94 -90 210q0 94 58 175q59 81 162 121q-110 105 -110 235q0 125 99 209t270 84q169 0 263 -97q95 -96 95 -271v0h-112v0q0 258 -251 258
q-108 0 -171 -52q-62 -51 -62 -139q0 -85 84 -160q85 -74 233 -155q233 -126 308 -211q76 -84 76 -193q0 -173 -226 -315q119 -101 119 -225q0 -142 -101 -230q-100 -88 -256 -88q-175 0 -277 99t-108 269zM391 917q-183 -79 -183 -214q0 -80 86 -158q86 -77 452 -303
q184 98 184 232q0 60 -52 117t-157 123z" />
    <glyph glyph-name="dieresis" unicode="&#xa8;" horiz-adv-x="682" 
d="M128 1393h133v-209h-133v209zM453 1393h133v-209h-133v209zM357 1168z" />
    <glyph glyph-name="copyright" unicode="&#xa9;" horiz-adv-x="1638" 
d="M821 -39q-333 0 -553 224t-220 562q0 314 219 543q219 230 561 230q332 0 549 -227q218 -227 218 -553q0 -323 -227 -551t-547 -228zM171 746q0 -296 186 -489q187 -193 465 -193q274 0 462 190t188 487q0 287 -186 481q-185 195 -459 195q-272 0 -464 -191
q-192 -190 -192 -480zM1216 901h-111q-19 79 -81 138q-62 60 -168 60q-152 0 -231 -102q-79 -101 -79 -250q0 -157 88 -258q89 -100 224 -100q94 0 164 60t83 154h111q-21 -141 -122 -223q-100 -81 -232 -81q-194 0 -315 122q-120 123 -120 326q0 191 114 316
q115 126 311 126q152 0 245 -77q94 -76 119 -211z" />
    <glyph glyph-name="ordfeminine" unicode="&#xaa;" horiz-adv-x="684" 
d="M496 1309q0 135 -169 135q-188 0 -200 -146h-80q20 208 285 208q123 0 183 -50q61 -49 61 -148v-326v-17q0 -56 35 -56q26 0 49 10v-60q-25 -12 -62 -12q-49 0 -76 25q-26 26 -26 77q-83 -111 -249 -111q-105 0 -168 49t-63 133q0 162 243 195l124 16q66 8 79 15
q34 13 34 63zM496 1191q-16 -8 -76 -21q-60 -12 -115 -14q-105 -7 -157 -39q-52 -31 -52 -97q0 -49 39 -85q40 -35 117 -35q99 0 171 52q73 52 73 140v99z" />
    <glyph glyph-name="guillemotleft" unicode="&#xab;" 
d="M524 822v-130l-218 -160l218 -161v-127l-304 224v130zM908 822v-130l-218 -160l218 -161v-127l-304 224v130z" />
    <glyph glyph-name="logicalnot" unicode="&#xac;" horiz-adv-x="1352" 
d="M160 769h1024v-539h-131v416h-893v123z" />
    <glyph glyph-name="hyphen" unicode="&#xad;" horiz-adv-x="682" 
d="M80 595h512v-127h-512v127z" />
    <glyph glyph-name="registered" unicode="&#xae;" horiz-adv-x="1638" 
d="M821 -39q-342 0 -558 227q-215 227 -215 559q0 320 225 546q225 227 555 227q320 0 543 -224q224 -224 224 -556q0 -320 -221 -550q-221 -229 -553 -229zM171 746q0 -288 183 -485t468 -197q276 0 463 190t187 487q0 311 -189 493q-189 183 -456 183q-272 0 -464 -191
q-192 -190 -192 -480zM539 307v866h380q146 0 221 -58q76 -57 76 -172q0 -121 -76 -179q-75 -58 -197 -58v0l263 -399h-127l-249 399h-185v-399h-106zM645 1098v-309h265q98 0 144 39q47 40 47 119q0 151 -202 151h-254z" />
    <glyph glyph-name="macron" unicode="&#xaf;" horiz-adv-x="1020" 
d="M0 1636h1020v-105h-1020v105z" />
    <glyph glyph-name="degree" unicode="&#xb0;" horiz-adv-x="819" 
d="M96 1139q0 124 89 212t218 88q126 0 214 -90q89 -89 89 -217t-90 -215q-89 -87 -213 -87q-126 0 -217 86q-90 86 -90 223zM178 1134q0 -94 65 -159q66 -64 160 -64q91 0 156 65t65 159t-63 158q-63 65 -160 65q-94 0 -159 -66q-64 -65 -64 -158z" />
    <glyph glyph-name="plusminus" unicode="&#xb1;" horiz-adv-x="1352" 
d="M160 127h1023v-127h-1023v127zM160 686h448v352h127v-352h448v-127h-448v-352h-127v352h-448v127z" />
    <glyph glyph-name="twosuperior" unicode="&#xb2;" horiz-adv-x="682" 
d="M32 640q0 136 63 210q64 74 225 165l113 67q60 35 97 79q37 45 37 112q0 83 -61 132t-150 49q-88 0 -148 -63q-60 -62 -60 -159v0h-89v0q0 126 83 207q84 81 225 81q135 0 212 -67t77 -178q0 -85 -56 -161q-56 -75 -218 -155q-145 -73 -201 -132t-56 -121v0h523v-66h-616
v0z" />
    <glyph glyph-name="threesuperior" unicode="&#xb3;" horiz-adv-x="682" 
d="M24 894h89v0q0 -91 59 -149q60 -57 170 -57q106 0 169 48q64 49 64 142q0 96 -60 142q-59 46 -170 46h-65v0v66v0q263 0 263 165q0 78 -51 117q-51 40 -150 40q-89 0 -147 -52q-57 -51 -57 -138h-83q8 123 89 189q81 67 218 67q123 0 196 -57q74 -57 74 -155
q0 -146 -136 -199q168 -51 168 -221q0 -116 -86 -191q-85 -75 -239 -75q-130 0 -217 60q-86 61 -98 212v0z" />
    <glyph glyph-name="acute" unicode="&#xb4;" horiz-adv-x="682" 
d="M224 1168l224 288h160l-280 -288h-104zM332 1168z" />
    <glyph glyph-name="mu" unicode="&#xb5;" 
d="M996 1056v-1056h-123v148q-141 -176 -343 -176q-156 0 -259 66v-454h-123v1472h128l-5 -699q0 -132 71 -203t199 -71q153 0 242 107q90 108 90 284v582h123z" />
    <glyph glyph-name="paragraph" unicode="&#xb6;" horiz-adv-x="1331" 
d="M528 -304v992q-174 0 -287 110q-113 111 -113 279q0 180 116 287q116 108 353 108h440v0v0v-1776h-123v1639h-263v-1639h-123z" />
    <glyph glyph-name="cedilla" unicode="&#xb8;" horiz-adv-x="682" 
d="M112 -384l33 59q74 -27 134 -27q59 0 95 26t36 66q0 39 -29 59t-71 20t-85 -16l-33 25l123 172h79l-96 -125q41 13 74 13q68 0 112 -38t44 -106q0 -77 -63 -121t-165 -44q-74 0 -188 37zM377 0z" />
    <glyph glyph-name="onesuperior" unicode="&#xb9;" horiz-adv-x="682" 
d="M144 1351q234 0 259 169h67v-880h-86v656h-240v55z" />
    <glyph glyph-name="ordmasculine" unicode="&#xba;" horiz-adv-x="684" 
d="M16 1175q0 152 88 241q88 90 235 90q151 0 234 -93q83 -92 83 -244q0 -150 -88 -241q-87 -90 -227 -90q-150 0 -238 90q-87 90 -87 247zM96 1170q0 -124 65 -197q66 -73 173 -73q104 0 173 71t69 203q0 127 -63 198q-63 72 -173 72q-115 0 -180 -72q-64 -71 -64 -202z
" />
    <glyph glyph-name="guillemotright" unicode="&#xbb;" 
d="M615 244v130l218 160l-218 161v127l304 -224v-130zM231 244v130l218 160l-218 161v127l304 -224v-130z" />
    <glyph glyph-name="onequarter" unicode="&#xbc;" horiz-adv-x="1708" 
d="M89 1351q234 0 259 169h67v-880h-86v656h-240v55zM344 -30l904 1469h104l-904 -1469h-104zM981 278l437 595h75v-599h132v-66h-132v-215h-86v215h-426v70zM1063 274v0h344v477v0z" />
    <glyph glyph-name="onehalf" unicode="&#xbd;" horiz-adv-x="1708" 
d="M89 1351q234 0 259 169h67v-880h-86v656h-240v55zM262 -30l904 1469h104l-904 -1469h-104zM1007 -7q0 136 63 210q64 74 225 165l113 67q60 35 97 79q37 45 37 112q0 83 -61 132t-150 49q-88 0 -148 -63q-60 -62 -60 -159v0h-89v0q0 126 83 207q84 81 225 81
q135 0 212 -67t77 -178q0 -85 -56 -161q-56 -75 -218 -155q-145 -73 -201 -132t-56 -121v0h523v-66h-616v0z" />
    <glyph glyph-name="threequarters" unicode="&#xbe;" horiz-adv-x="1708" 
d="M83 894h89v0q0 -91 59 -149q60 -57 170 -57q106 0 169 48q64 49 64 142q0 96 -60 142q-59 46 -170 46h-65v0v66v0q263 0 263 165q0 78 -51 117q-51 40 -150 40q-89 0 -147 -52q-57 -51 -57 -138h-83q8 123 89 189q81 67 218 67q123 0 196 -57q74 -57 74 -155
q0 -146 -136 -199q168 -51 168 -221q0 -116 -86 -191q-85 -75 -239 -75q-130 0 -217 60q-86 61 -98 212v0zM426 -30l904 1469h104l-904 -1469h-104zM981 278l437 595h75v-599h132v-66h-132v-215h-86v215h-426v70zM1063 274v0h344v477v0z" />
    <glyph glyph-name="questiondown" unicode="&#xbf;" horiz-adv-x="1024" 
d="M599 910h-150v180h150v-180zM949 -6q0 -185 -128 -299q-128 -115 -319 -115q-206 0 -326 104q-121 104 -121 283q0 83 51 161q51 77 172 186q105 94 148 170q42 76 42 190v44h119v-48q0 -126 -43 -216q-43 -91 -163 -205q-96 -91 -145 -157q-50 -66 -50 -145
q0 -114 89 -185q89 -72 227 -72q147 0 234 94t87 252h125q1 -16 1 -42z" />
    <glyph glyph-name="Agrave" unicode="&#xc0;" horiz-adv-x="1366" 
d="M30 0l576 1472h157l576 -1472h-144l-174 460v0h-675v0l-172 -460h-144zM393 579v0h580v0l-294 772v0zM690 1590zM1211 0zM0 1510zM682 1620l-280 288h160l224 -288h-104zM690 1620z" />
    <glyph glyph-name="Aacute" unicode="&#xc1;" horiz-adv-x="1366" 
d="M30 0l576 1472h157l576 -1472h-144l-174 460v0h-675v0l-172 -460h-144zM393 579v0h580v0l-294 772v0zM690 1590zM1211 0zM0 1510zM582 1620l224 288h160l-280 -288h-104zM690 1620z" />
    <glyph glyph-name="Acircumflex" unicode="&#xc2;" horiz-adv-x="1366" 
d="M30 0l576 1472h157l576 -1472h-144l-174 460v0h-675v0l-172 -460h-144zM393 579v0h580v0l-294 772v0zM690 1590zM1211 0zM0 1510zM381 1620l240 288h137l240 -288h-133l-176 210v0l-175 -210h-133zM690 1620z" />
    <glyph glyph-name="Atilde" unicode="&#xc3;" horiz-adv-x="1366" 
d="M30 0l576 1472h157l576 -1472h-144l-174 460v0h-675v0l-172 -460h-144zM393 579v0h580v0l-294 772v0zM690 1590zM1211 0zM0 1510zM370 1643q8 86 55 142q47 57 127 57q44 0 142 -46q98 -45 150 -45q75 0 86 101h75q-4 -77 -47 -138t-121 -61q-55 0 -149 45
q-94 46 -142 46q-67 0 -101 -101h-75zM690 1620z" />
    <glyph glyph-name="Adieresis" unicode="&#xc4;" horiz-adv-x="1366" 
d="M30 0l576 1472h157l576 -1472h-144l-174 460v0h-675v0l-172 -460h-144zM393 579v0h580v0l-294 772v0zM690 1590zM1211 0zM0 1510zM461 1845h133v-209h-133v209zM786 1845h133v-209h-133v209zM690 1620z" />
    <glyph glyph-name="Aring" unicode="&#xc5;" horiz-adv-x="1366" 
d="M30 0l576 1472h157l576 -1472h-144l-174 460v0h-675v0l-172 -460h-144zM393 579v0h580v0l-294 772v0zM690 1590zM1211 0zM0 1510zM486 1765q0 85 59 145q59 61 148 61q85 0 141 -59q57 -59 57 -142q0 -91 -56 -148q-56 -56 -142 -56t-147 59q-60 60 -60 140zM555 1767
q0 -57 39 -95q40 -37 97 -37q59 0 95 37q36 38 36 95q0 56 -39 95q-39 40 -92 40q-57 0 -97 -40q-39 -39 -39 -95zM690 1550z" />
    <glyph glyph-name="AE" unicode="&#xc6;" horiz-adv-x="2048" 
d="M11 0l640 1472h1299v-119h-840v-528h764v-119h-764v-587h864v-119h-1003v460h-625v0l-196 -460h-139zM403 579v0h568v774h-237v0z" />
    <glyph glyph-name="Ccedilla" unicode="&#xc7;" horiz-adv-x="1479" 
d="M1227 490h146q-50 -244 -210 -386q-159 -142 -428 -142q-297 0 -467 199q-170 200 -170 575q0 374 173 574q174 200 516 200q244 0 388 -131q144 -130 182 -333h-144q-33 161 -143 253t-322 92q-240 0 -376 -174q-135 -174 -135 -481q0 -308 131 -482q132 -173 391 -173
q179 0 305 109t163 300zM745 1590zM740 0zM475 -364l33 59q74 -27 134 -27q59 0 95 26t36 66q0 39 -29 59t-71 20t-85 -16l-33 25l123 172h79l-96 -125q41 13 74 13q68 0 112 -38t44 -106q0 -77 -63 -121t-165 -44q-74 0 -188 37zM740 20z" />
    <glyph glyph-name="Egrave" unicode="&#xc8;" horiz-adv-x="1251" 
d="M146 0v1472h987v-119h-848v-528h765v-119h-765v-587h868v-119h-1007zM640 1590zM640 0zM0 1510zM632 1620l-280 288h160l224 -288h-104zM640 1620z" />
    <glyph glyph-name="Eacute" unicode="&#xc9;" horiz-adv-x="1251" 
d="M146 0v1472h987v-119h-848v-528h765v-119h-765v-587h868v-119h-1007zM640 1590zM640 0zM0 1510zM532 1620l224 288h160l-280 -288h-104zM640 1620z" />
    <glyph glyph-name="Ecircumflex" unicode="&#xca;" horiz-adv-x="1251" 
d="M146 0v1472h987v-119h-848v-528h765v-119h-765v-587h868v-119h-1007zM640 1590zM640 0zM0 1510zM331 1620l240 288h137l240 -288h-133l-176 210v0l-175 -210h-133zM640 1620z" />
    <glyph glyph-name="Edieresis" unicode="&#xcb;" horiz-adv-x="1251" 
d="M146 0v1472h987v-119h-848v-528h765v-119h-765v-587h868v-119h-1007zM640 1590zM640 0zM0 1510zM411 1845h133v-209h-133v209zM736 1845h133v-209h-133v209zM640 1620z" />
    <glyph glyph-name="Igrave" unicode="&#xcc;" horiz-adv-x="569" 
d="M215 1472h139v-1472h-139v1472zM301 1590zM285 0zM0 1510zM293 1620l-280 288h160l224 -288h-104zM301 1620z" />
    <glyph glyph-name="Iacute" unicode="&#xcd;" horiz-adv-x="569" 
d="M215 1472h139v-1472h-139v1472zM301 1590zM285 0zM0 1510zM193 1620l224 288h160l-280 -288h-104zM301 1620z" />
    <glyph glyph-name="Icircumflex" unicode="&#xce;" horiz-adv-x="569" 
d="M215 1472h139v-1472h-139v1472zM301 1590zM285 0zM0 1510zM-8 1620l240 288h137l240 -288h-133l-176 210v0l-175 -210h-133zM301 1620z" />
    <glyph glyph-name="Idieresis" unicode="&#xcf;" horiz-adv-x="569" 
d="M215 1472h139v-1472h-139v1472zM301 1590zM285 0zM0 1510zM72 1845h133v-209h-133v209zM397 1845h133v-209h-133v209zM301 1620z" />
    <glyph glyph-name="Eth" unicode="&#xd0;" horiz-adv-x="1479" 
d="M165 840v632h506q369 0 537 -189q168 -188 168 -547q0 -357 -176 -547q-176 -189 -510 -189h-525v721h-146v119h146zM304 840h336v-119h-336v-602h346q307 0 447 151q140 152 140 471q0 291 -129 451q-128 161 -443 161h-361v-513z" />
    <glyph glyph-name="Ntilde" unicode="&#xd1;" horiz-adv-x="1479" 
d="M161 1472h157l851 -1288v0v1288h139v-1472h-161l-847 1294v0v-1294h-139v1472zM743 1590zM743 0zM0 1510zM423 1643q8 86 55 142q47 57 127 57q44 0 142 -46q98 -45 150 -45q75 0 86 101h75q-4 -77 -47 -138t-121 -61q-55 0 -149 45q-94 46 -142 46q-67 0 -101 -101h-75z
M743 1620z" />
    <glyph glyph-name="Ograve" unicode="&#xd2;" horiz-adv-x="1593" 
d="M109 730q0 359 187 569q187 211 493 211q323 0 507 -209t184 -571q0 -342 -184 -555t-502 -213q-322 0 -504 214q-181 215 -181 554zM248 731q0 -303 147 -477q147 -173 400 -173q251 0 398 173q148 174 148 482q0 312 -146 483q-145 172 -405 172q-252 0 -397 -180
q-145 -179 -145 -480zM795 1590zM787 1620l-280 288h160l224 -288h-104zM795 1620z" />
    <glyph glyph-name="Oacute" unicode="&#xd3;" horiz-adv-x="1593" 
d="M109 730q0 359 187 569q187 211 493 211q323 0 507 -209t184 -571q0 -342 -184 -555t-502 -213q-322 0 -504 214q-181 215 -181 554zM248 731q0 -303 147 -477q147 -173 400 -173q251 0 398 173q148 174 148 482q0 312 -146 483q-145 172 -405 172q-252 0 -397 -180
q-145 -179 -145 -480zM795 1590zM687 1620l224 288h160l-280 -288h-104zM795 1620z" />
    <glyph glyph-name="Ocircumflex" unicode="&#xd4;" horiz-adv-x="1593" 
d="M109 730q0 359 187 569q187 211 493 211q323 0 507 -209t184 -571q0 -342 -184 -555t-502 -213q-322 0 -504 214q-181 215 -181 554zM248 731q0 -303 147 -477q147 -173 400 -173q251 0 398 173q148 174 148 482q0 312 -146 483q-145 172 -405 172q-252 0 -397 -180
q-145 -179 -145 -480zM795 1590zM486 1620l240 288h137l240 -288h-133l-176 210v0l-175 -210h-133zM795 1620z" />
    <glyph glyph-name="Otilde" unicode="&#xd5;" horiz-adv-x="1593" 
d="M109 730q0 359 187 569q187 211 493 211q323 0 507 -209t184 -571q0 -342 -184 -555t-502 -213q-322 0 -504 214q-181 215 -181 554zM248 731q0 -303 147 -477q147 -173 400 -173q251 0 398 173q148 174 148 482q0 312 -146 483q-145 172 -405 172q-252 0 -397 -180
q-145 -179 -145 -480zM795 1590zM475 1643q8 86 55 142q47 57 127 57q44 0 142 -46q98 -45 150 -45q75 0 86 101h75q-4 -77 -47 -138t-121 -61q-55 0 -149 45q-94 46 -142 46q-67 0 -101 -101h-75zM795 1620z" />
    <glyph glyph-name="Odieresis" unicode="&#xd6;" horiz-adv-x="1593" 
d="M109 730q0 359 187 569q187 211 493 211q323 0 507 -209t184 -571q0 -342 -184 -555t-502 -213q-322 0 -504 214q-181 215 -181 554zM248 731q0 -303 147 -477q147 -173 400 -173q251 0 398 173q148 174 148 482q0 312 -146 483q-145 172 -405 172q-252 0 -397 -180
q-145 -179 -145 -480zM795 1590zM566 1845h133v-209h-133v209zM891 1845h133v-209h-133v209zM795 1620z" />
    <glyph glyph-name="multiply" unicode="&#xd7;" horiz-adv-x="1352" 
d="M253 15l-77 73l428 429v0l-428 433l77 73l429 -427v0l425 427l77 -73l-429 -433v0l429 -429l-79 -73l-424 427v0z" />
    <glyph glyph-name="Oslash" unicode="&#xd8;" horiz-adv-x="1593" 
d="M1254 1335v0l169 192l83 -72l-178 -204v0q145 -171 145 -519q0 -340 -186 -555q-185 -215 -501 -215q-273 0 -448 160v0l-173 -199l-78 72l179 206v0q-164 202 -164 534q0 351 183 563t496 212q295 0 473 -175zM1167 1233v0q-146 158 -383 158q-251 0 -397 -177
t-146 -483q0 -128 30 -244q30 -115 83 -187v0zM1235 1144v0l-809 -924v0q52 -62 151 -101q99 -38 214 -38q254 0 398 177q145 177 145 476q0 238 -99 410z" />
    <glyph glyph-name="Ugrave" unicode="&#xd9;" horiz-adv-x="1479" 
d="M168 1472h139v-864q0 -297 112 -412t326 -115q213 0 322 115q109 116 109 401v875h139v-926q0 -292 -154 -438q-153 -146 -415 -146q-289 0 -434 150q-144 151 -144 440v920zM742 1590zM742 0zM0 1510zM734 1620l-280 288h160l224 -288h-104zM742 1620z" />
    <glyph glyph-name="Uacute" unicode="&#xda;" horiz-adv-x="1479" 
d="M168 1472h139v-864q0 -297 112 -412t326 -115q213 0 322 115q109 116 109 401v875h139v-926q0 -292 -154 -438q-153 -146 -415 -146q-289 0 -434 150q-144 151 -144 440v920zM742 1590zM742 0zM0 1510zM634 1620l224 288h160l-280 -288h-104zM742 1620z" />
    <glyph glyph-name="Ucircumflex" unicode="&#xdb;" horiz-adv-x="1479" 
d="M168 1472h139v-864q0 -297 112 -412t326 -115q213 0 322 115q109 116 109 401v875h139v-926q0 -292 -154 -438q-153 -146 -415 -146q-289 0 -434 150q-144 151 -144 440v920zM742 1590zM742 0zM0 1510zM433 1620l240 288h137l240 -288h-133l-176 210v0l-175 -210h-133z
M742 1620z" />
    <glyph glyph-name="Udieresis" unicode="&#xdc;" horiz-adv-x="1479" 
d="M168 1472h139v-864q0 -297 112 -412t326 -115q213 0 322 115q109 116 109 401v875h139v-926q0 -292 -154 -438q-153 -146 -415 -146q-289 0 -434 150q-144 151 -144 440v920zM742 1590zM742 0zM0 1510zM513 1845h133v-209h-133v209zM838 1845h133v-209h-133v209z
M742 1620z" />
    <glyph glyph-name="Yacute" unicode="&#xdd;" horiz-adv-x="1251" 
d="M16 1472h159l436 -707v0l439 707h161l-528 -828v-644h-139v633zM614 1590zM0 1510zM506 1620l224 288h160l-280 -288h-104zM614 1620z" />
    <glyph glyph-name="Thorn" unicode="&#xde;" horiz-adv-x="1251" 
d="M298 1166h402q237 0 357 -103q121 -103 121 -311q0 -206 -137 -307q-137 -100 -427 -100h-316v-345h-139v1472h139v-306zM298 1047v-583h324q226 0 321 69q96 69 96 232q0 145 -84 213q-83 69 -307 69h-350z" />
    <glyph glyph-name="germandbls" unicode="&#xdf;" horiz-adv-x="1024" 
d="M106 0v1102q0 200 99 299t281 99t290 -101q109 -101 109 -282q0 -83 -43 -160t-124 -134q94 -41 154 -135q61 -93 61 -234q0 -232 -111 -357q-110 -125 -323 -125q-37 0 -78 10v107q44 -6 74 -6q128 0 217 80q90 81 90 248q0 182 -82 268t-268 86h-15v103q156 2 236 65
q81 64 81 189q0 121 -68 194t-192 73h-21q-117 0 -181 -61q-63 -61 -63 -227v-1101h-123z" />
    <glyph glyph-name="agrave" unicode="&#xe0;" 
d="M144 732q10 156 116 254q107 98 315 98q386 0 386 -332v-572q0 -61 15 -79t46 -18q28 0 68 19v-96q-46 -21 -97 -21h-6q-76 0 -112 40q-35 41 -35 125q-152 -178 -393 -178q-158 0 -256 81q-97 82 -97 224q0 266 372 315l183 27q154 21 171 52q18 32 18 93
q0 209 -260 209q-277 0 -309 -241h-125zM838 556q-111 -45 -302 -58q-153 -9 -232 -64q-79 -54 -79 -159q0 -89 64 -141q65 -51 163 -51q174 0 280 83q106 84 106 224v166zM573 1164zM934 0zM565 1164l-280 288h160l224 -288h-104zM573 1164z" />
    <glyph glyph-name="aacute" unicode="&#xe1;" 
d="M144 732q10 156 116 254q107 98 315 98q386 0 386 -332v-572q0 -61 15 -79t46 -18q28 0 68 19v-96q-46 -21 -97 -21h-6q-76 0 -112 40q-35 41 -35 125q-152 -178 -393 -178q-158 0 -256 81q-97 82 -97 224q0 266 372 315l183 27q154 21 171 52q18 32 18 93
q0 209 -260 209q-277 0 -309 -241h-125zM838 556q-111 -45 -302 -58q-153 -9 -232 -64q-79 -54 -79 -159q0 -89 64 -141q65 -51 163 -51q174 0 280 83q106 84 106 224v166zM573 1164zM934 0zM465 1164l224 288h160l-280 -288h-104zM573 1164z" />
    <glyph glyph-name="acircumflex" unicode="&#xe2;" 
d="M144 732q10 156 116 254q107 98 315 98q386 0 386 -332v-572q0 -61 15 -79t46 -18q28 0 68 19v-96q-46 -21 -97 -21h-6q-76 0 -112 40q-35 41 -35 125q-152 -178 -393 -178q-158 0 -256 81q-97 82 -97 224q0 266 372 315l183 27q154 21 171 52q18 32 18 93
q0 209 -260 209q-277 0 -309 -241h-125zM838 556q-111 -45 -302 -58q-153 -9 -232 -64q-79 -54 -79 -159q0 -89 64 -141q65 -51 163 -51q174 0 280 83q106 84 106 224v166zM573 1164zM934 0zM264 1164l240 288h137l240 -288h-133l-176 210v0l-175 -210h-133zM573 1164z" />
    <glyph glyph-name="atilde" unicode="&#xe3;" 
d="M144 732q10 156 116 254q107 98 315 98q386 0 386 -332v-572q0 -61 15 -79t46 -18q28 0 68 19v-96q-46 -21 -97 -21h-6q-76 0 -112 40q-35 41 -35 125q-152 -178 -393 -178q-158 0 -256 81q-97 82 -97 224q0 266 372 315l183 27q154 21 171 52q18 32 18 93
q0 209 -260 209q-277 0 -309 -241h-125zM838 556q-111 -45 -302 -58q-153 -9 -232 -64q-79 -54 -79 -159q0 -89 64 -141q65 -51 163 -51q174 0 280 83q106 84 106 224v166zM573 1164zM934 0zM253 1187q8 86 55 142q47 57 127 57q44 0 142 -46q98 -45 150 -45q75 0 86 101h75
q-4 -77 -47 -138t-121 -61q-55 0 -149 45q-94 46 -142 46q-67 0 -101 -101h-75zM573 1164z" />
    <glyph glyph-name="adieresis" unicode="&#xe4;" 
d="M144 732q10 156 116 254q107 98 315 98q386 0 386 -332v-572q0 -61 15 -79t46 -18q28 0 68 19v-96q-46 -21 -97 -21h-6q-76 0 -112 40q-35 41 -35 125q-152 -178 -393 -178q-158 0 -256 81q-97 82 -97 224q0 266 372 315l183 27q154 21 171 52q18 32 18 93
q0 209 -260 209q-277 0 -309 -241h-125zM838 556q-111 -45 -302 -58q-153 -9 -232 -64q-79 -54 -79 -159q0 -89 64 -141q65 -51 163 -51q174 0 280 83q106 84 106 224v166zM573 1164zM934 0zM344 1389h133v-209h-133v209zM669 1389h133v-209h-133v209zM573 1164z" />
    <glyph glyph-name="aring" unicode="&#xe5;" 
d="M144 732q10 156 116 254q107 98 315 98q386 0 386 -332v-572q0 -61 15 -79t46 -18q28 0 68 19v-96q-46 -21 -97 -21h-6q-76 0 -112 40q-35 41 -35 125q-152 -178 -393 -178q-158 0 -256 81q-97 82 -97 224q0 266 372 315l183 27q154 21 171 52q18 32 18 93
q0 209 -260 209q-277 0 -309 -241h-125zM838 556q-111 -45 -302 -58q-153 -9 -232 -64q-79 -54 -79 -159q0 -89 64 -141q65 -51 163 -51q174 0 280 83q106 84 106 224v166zM573 1164zM934 0zM369 1379q0 85 59 145q59 61 148 61q85 0 141 -59q57 -59 57 -142q0 -91 -56 -148
q-56 -56 -142 -56t-147 59q-60 60 -60 140zM438 1381q0 -57 39 -95q40 -37 97 -37q59 0 95 37q36 38 36 95q0 56 -39 95q-39 40 -92 40q-57 0 -97 -40q-39 -39 -39 -95zM573 1164z" />
    <glyph glyph-name="ae" unicode="&#xe6;" horiz-adv-x="1821" 
d="M916 908q109 176 360 176q219 0 337 -141q119 -140 119 -442v0h-800v0q5 -418 358 -418q241 0 307 241h127q-37 -164 -151 -258t-298 -94q-276 0 -406 240q-81 -118 -186 -179t-260 -61q-163 0 -253 81q-89 82 -89 225q0 142 101 229q90 78 247 94l192 24q118 11 149 38
t31 84q0 119 -56 172q-55 54 -184 54h-15q-268 0 -294 -241h-127q6 163 117 257q111 95 297 95q160 0 252 -47q92 -46 125 -129zM212 288q0 -96 55 -151q56 -54 164 -54q186 0 284 102q86 88 86 224v152q-49 -25 -142 -42q-93 -16 -162 -25q-285 -34 -285 -206zM932 604h669
v0q0 157 -84 263q-83 106 -243 106q-151 0 -247 -109q-95 -109 -95 -260z" />
    <glyph glyph-name="ccedilla" unicode="&#xe7;" 
d="M909 372h131q-33 -193 -148 -297q-115 -103 -309 -103h-8q-221 0 -350 147q-129 148 -129 405q0 240 131 400t356 160q185 0 298 -90q114 -89 146 -278v0h-131v0q-70 257 -316 257q-154 0 -254 -122q-99 -122 -99 -326q0 -197 95 -320q95 -122 267 -122q133 0 218 81
t102 208zM591 1164zM591 0zM326 -384l33 59q74 -27 134 -27q59 0 95 26t36 66q0 39 -29 59t-71 20t-85 -16l-33 25l123 172h79l-96 -125q41 13 74 13q68 0 112 -38t44 -106q0 -77 -63 -121t-165 -44q-74 0 -188 37zM591 0z" />
    <glyph glyph-name="egrave" unicode="&#xe8;" 
d="M223 501v0q0 -192 98 -305t264 -113q116 0 201 64q86 65 114 177h131q-43 -152 -158 -252q-114 -100 -284 -100h-16q-224 0 -353 145q-128 146 -128 407q0 242 134 401q135 159 351 159q221 0 341 -150q121 -149 121 -433v0h-816zM223 604h685v0q0 161 -89 265t-240 104
q-145 0 -240 -100q-94 -99 -116 -269zM569 1164zM577 0zM561 1164l-280 288h160l224 -288h-104zM569 1164z" />
    <glyph glyph-name="eacute" unicode="&#xe9;" 
d="M223 501v0q0 -192 98 -305t264 -113q116 0 201 64q86 65 114 177h131q-43 -152 -158 -252q-114 -100 -284 -100h-16q-224 0 -353 145q-128 146 -128 407q0 242 134 401q135 159 351 159q221 0 341 -150q121 -149 121 -433v0h-816zM223 604h685v0q0 161 -89 265t-240 104
q-145 0 -240 -100q-94 -99 -116 -269zM569 1164zM577 0zM461 1164l224 288h160l-280 -288h-104zM569 1164z" />
    <glyph glyph-name="ecircumflex" unicode="&#xea;" 
d="M223 501v0q0 -192 98 -305t264 -113q116 0 201 64q86 65 114 177h131q-43 -152 -158 -252q-114 -100 -284 -100h-16q-224 0 -353 145q-128 146 -128 407q0 242 134 401q135 159 351 159q221 0 341 -150q121 -149 121 -433v0h-816zM223 604h685v0q0 161 -89 265t-240 104
q-145 0 -240 -100q-94 -99 -116 -269zM569 1164zM577 0zM260 1164l240 288h137l240 -288h-133l-176 210v0l-175 -210h-133zM569 1164z" />
    <glyph glyph-name="edieresis" unicode="&#xeb;" 
d="M223 501v0q0 -192 98 -305t264 -113q116 0 201 64q86 65 114 177h131q-43 -152 -158 -252q-114 -100 -284 -100h-16q-224 0 -353 145q-128 146 -128 407q0 242 134 401q135 159 351 159q221 0 341 -150q121 -149 121 -433v0h-816zM223 604h685v0q0 161 -89 265t-240 104
q-145 0 -240 -100q-94 -99 -116 -269zM569 1164zM577 0zM340 1389h133v-209h-133v209zM665 1389h133v-209h-133v209zM569 1164z" />
    <glyph glyph-name="igrave" unicode="&#xec;" horiz-adv-x="455" 
d="M160 1056h123v-1056h-123v1056zM222 1164zM0 1084zM214 1164l-280 288h160l224 -288h-104zM222 1164z" />
    <glyph glyph-name="iacute" unicode="&#xed;" horiz-adv-x="455" 
d="M160 1056h123v-1056h-123v1056zM222 1164zM0 1084zM114 1164l224 288h160l-280 -288h-104zM222 1164z" />
    <glyph glyph-name="icircumflex" unicode="&#xee;" horiz-adv-x="455" 
d="M160 1056h123v-1056h-123v1056zM222 1164zM0 1084zM-87 1164l240 288h137l240 -288h-133l-176 210v0l-175 -210h-133zM222 1164z" />
    <glyph glyph-name="idieresis" unicode="&#xef;" horiz-adv-x="455" 
d="M160 1056h123v-1056h-123v1056zM222 1164zM0 1084zM-7 1389h133v-209h-133v209zM318 1389h133v-209h-133v209zM222 1164z" />
    <glyph glyph-name="eth" unicode="&#xf0;" 
d="M607 1358v0q-54 36 -160 95l85 67q100 -48 161 -92v0l101 92l79 -51l-116 -101v0q139 -128 220 -351t81 -488q0 -238 -129 -398q-129 -159 -349 -159q-233 0 -367 154t-134 398q0 234 133 397q134 163 356 163q176 0 293 -96q-24 93 -68 169q-43 77 -114 146v0l-122 -107
l-79 50zM210 525q0 -213 98 -328q99 -114 263 -114t260 120q96 121 96 328q0 217 -93 329q-92 113 -263 113q-175 0 -268 -127t-93 -321z" />
    <glyph glyph-name="ntilde" unicode="&#xf1;" 
d="M148 0v1056h123v-148q139 176 340 176q175 0 277 -93q103 -92 103 -263v-728h-123v703q0 136 -68 203t-200 67q-148 0 -239 -101q-90 -101 -90 -275v-597h-123zM576 1164zM570 0zM256 1187q8 86 55 142q47 57 127 57q44 0 142 -46q98 -45 150 -45q75 0 86 101h75
q-4 -77 -47 -138t-121 -61q-55 0 -149 45q-94 46 -142 46q-67 0 -101 -101h-75zM576 1164z" />
    <glyph glyph-name="ograve" unicode="&#xf2;" 
d="M79 528q0 251 132 403q132 153 358 153q227 0 358 -150t131 -406q0 -248 -135 -402q-134 -154 -343 -154q-233 0 -367 150q-134 151 -134 406zM210 525q0 -206 96 -324q97 -118 265 -118q166 0 261 119q95 120 95 329q0 202 -90 322t-266 120q-171 0 -266 -123
q-95 -122 -95 -325zM572 1164zM564 1164l-280 288h160l224 -288h-104zM572 1164z" />
    <glyph glyph-name="oacute" unicode="&#xf3;" 
d="M79 528q0 251 132 403q132 153 358 153q227 0 358 -150t131 -406q0 -248 -135 -402q-134 -154 -343 -154q-233 0 -367 150q-134 151 -134 406zM210 525q0 -206 96 -324q97 -118 265 -118q166 0 261 119q95 120 95 329q0 202 -90 322t-266 120q-171 0 -266 -123
q-95 -122 -95 -325zM572 1164zM464 1164l224 288h160l-280 -288h-104zM572 1164z" />
    <glyph glyph-name="ocircumflex" unicode="&#xf4;" 
d="M79 528q0 251 132 403q132 153 358 153q227 0 358 -150t131 -406q0 -248 -135 -402q-134 -154 -343 -154q-233 0 -367 150q-134 151 -134 406zM210 525q0 -206 96 -324q97 -118 265 -118q166 0 261 119q95 120 95 329q0 202 -90 322t-266 120q-171 0 -266 -123
q-95 -122 -95 -325zM572 1164zM263 1164l240 288h137l240 -288h-133l-176 210v0l-175 -210h-133zM572 1164z" />
    <glyph glyph-name="otilde" unicode="&#xf5;" 
d="M79 528q0 251 132 403q132 153 358 153q227 0 358 -150t131 -406q0 -248 -135 -402q-134 -154 -343 -154q-233 0 -367 150q-134 151 -134 406zM210 525q0 -206 96 -324q97 -118 265 -118q166 0 261 119q95 120 95 329q0 202 -90 322t-266 120q-171 0 -266 -123
q-95 -122 -95 -325zM572 1164zM252 1187q8 86 55 142q47 57 127 57q44 0 142 -46q98 -45 150 -45q75 0 86 101h75q-4 -77 -47 -138t-121 -61q-55 0 -149 45q-94 46 -142 46q-67 0 -101 -101h-75zM572 1164z" />
    <glyph glyph-name="odieresis" unicode="&#xf6;" 
d="M79 528q0 251 132 403q132 153 358 153q227 0 358 -150t131 -406q0 -248 -135 -402q-134 -154 -343 -154q-233 0 -367 150q-134 151 -134 406zM210 525q0 -206 96 -324q97 -118 265 -118q166 0 261 119q95 120 95 329q0 202 -90 322t-266 120q-171 0 -266 -123
q-95 -122 -95 -325zM572 1164zM343 1389h133v-209h-133v209zM668 1389h133v-209h-133v209zM572 1164z" />
    <glyph glyph-name="divide" unicode="&#xf7;" horiz-adv-x="1352" 
d="M595 852v176h149v-176h-149zM1176 453h-1013v127h1013v-127zM595 5v176h149v-176h-149z" />
    <glyph glyph-name="oslash" unicode="&#xf8;" 
d="M189 150v0q-106 142 -106 376q0 244 127 401t362 157q189 0 313 -110v0l108 126l71 -64l-112 -135v0q110 -148 110 -377q0 -246 -133 -399t-346 -153q-196 0 -329 114v0l-108 -130l-73 59zM867 809v0l-537 -637v0q96 -89 245 -89q164 0 260 120t96 329q0 172 -64 277z
M278 252v0l531 631v0q-89 90 -233 90q-162 0 -262 -118t-100 -332q0 -161 64 -271z" />
    <glyph glyph-name="ugrave" unicode="&#xf9;" 
d="M148 1056h123v-703q0 -134 66 -202t202 -68q137 0 233 94q96 95 96 282v597h123v-1056h-123v148q-145 -176 -340 -176q-176 0 -278 91q-102 92 -102 265v728zM570 1164zM843 0zM0 1084zM562 1164l-280 288h160l224 -288h-104zM570 1164z" />
    <glyph glyph-name="uacute" unicode="&#xfa;" 
d="M148 1056h123v-703q0 -134 66 -202t202 -68q137 0 233 94q96 95 96 282v597h123v-1056h-123v148q-145 -176 -340 -176q-176 0 -278 91q-102 92 -102 265v728zM570 1164zM843 0zM0 1084zM462 1164l224 288h160l-280 -288h-104zM570 1164z" />
    <glyph glyph-name="ucircumflex" unicode="&#xfb;" 
d="M148 1056h123v-703q0 -134 66 -202t202 -68q137 0 233 94q96 95 96 282v597h123v-1056h-123v148q-145 -176 -340 -176q-176 0 -278 91q-102 92 -102 265v728zM570 1164zM843 0zM0 1084zM261 1164l240 288h137l240 -288h-133l-176 210v0l-175 -210h-133zM570 1164z" />
    <glyph glyph-name="udieresis" unicode="&#xfc;" 
d="M148 1056h123v-703q0 -134 66 -202t202 -68q137 0 233 94q96 95 96 282v597h123v-1056h-123v148q-145 -176 -340 -176q-176 0 -278 91q-102 92 -102 265v728zM570 1164zM843 0zM0 1084zM341 1389h133v-209h-133v209zM666 1389h133v-209h-133v209zM570 1164z" />
    <glyph glyph-name="yacute" unicode="&#xfd;" horiz-adv-x="1024" 
d="M128 -402v111q54 -14 96 -14q79 0 121 80q43 80 87 234v0v0l-400 1047h136l332 -891v0l343 891h133l-432 -1156q-71 -186 -147 -251q-75 -65 -152 -65q-78 0 -117 14zM508 1164zM0 1084zM400 1164l224 288h160l-280 -288h-104zM508 1164z" />
    <glyph glyph-name="thorn" unicode="&#xfe;" horiz-adv-x="1251" 
d="M284 860q48 96 149 160q102 64 229 64q224 0 347 -144q123 -143 123 -408q0 -256 -128 -408t-342 -152q-253 0 -378 192v-580h-123v1888h123v-612zM284 531q0 -202 100 -325t261 -123q158 0 257 111q99 112 99 355q0 192 -99 308t-260 116q-153 0 -256 -115
q-102 -115 -102 -327z" />
    <glyph glyph-name="ydieresis" unicode="&#xff;" horiz-adv-x="1024" 
d="M128 -402v111q54 -14 96 -14q79 0 121 80q43 80 87 234v0v0l-400 1047h136l332 -891v0l343 891h133l-432 -1156q-71 -186 -147 -251q-75 -65 -152 -65q-78 0 -117 14zM508 1164zM0 1084zM279 1389h133v-209h-133v209zM604 1389h133v-209h-133v209zM508 1164z" />
    <glyph glyph-name="dotlessi" unicode="&#x131;" horiz-adv-x="455" 
d="M160 1056h123v-1056h-123v1056zM222 1164zM0 1084z" />
    <glyph glyph-name="Lslash" unicode="&#x141;" 
d="M165 1472h139v-540v0l165 80v-122l-165 -80v0v-691h784v-119h-923v740v0l-165 -80v122l165 80v0v610z" />
    <glyph glyph-name="lslash" unicode="&#x142;" horiz-adv-x="455" 
d="M165 0v691v0l-146 -80v123l146 80v0v658h123v-589v0l146 80v-123l-146 -80v0v-760h-123z" />
    <glyph glyph-name="OE" unicode="&#x152;" horiz-adv-x="2048" 
d="M1978 119v-119h-853v154q-165 -192 -410 -192q-286 0 -458 201t-172 573q0 341 156 557q157 217 470 217q292 0 414 -192v154h831v-119h-698v-528h652v-119h-652v-587h720zM713 1391q-489 0 -489 -655q0 -302 125 -479q126 -176 374 -176q171 0 283 99t112 280v546
q0 177 -101 281q-100 104 -304 104z" />
    <glyph glyph-name="oe" unicode="&#x153;" horiz-adv-x="1933" 
d="M989 828q63 122 162 189t253 67q229 0 338 -141q110 -140 110 -442v0h-800v0v-20q0 -186 98 -292t251 -106q113 0 197 64t111 177h131q-45 -178 -157 -265q-111 -87 -282 -87q-145 0 -255 71q-109 71 -157 185q-55 -114 -168 -185q-112 -71 -269 -71q-219 0 -349 148
q-130 149 -130 408q0 262 131 409t363 147q296 0 422 -256zM204 525q0 -202 96 -322q97 -120 263 -120q153 0 255 116q103 117 103 343q0 203 -99 317q-98 114 -274 114q-166 0 -255 -122t-89 -326zM1054 604h667v0q0 165 -81 267q-80 102 -242 102q-136 0 -234 -100
q-98 -99 -110 -269z" />
    <glyph glyph-name="Scaron" unicode="&#x160;" horiz-adv-x="1251" 
d="M96 442h135v0q9 -163 115 -262q107 -99 306 -99q170 0 273 78q104 78 104 218q0 97 -62 164q-62 68 -195 108l-335 95q-309 92 -309 368q0 174 139 286q140 112 361 112q232 0 362 -121t130 -327v0h-135v0q0 156 -96 242q-96 87 -260 87q-159 0 -261 -73
q-101 -73 -101 -212q0 -190 281 -263l222 -59q197 -50 297 -148q101 -97 101 -245q0 -200 -140 -315q-139 -114 -396 -114q-248 0 -392 128t-144 352v0zM632 1590zM636 0zM940 1908l-240 -288h-137l-240 288h133l175 -210v0l176 210h133zM632 1620z" />
    <glyph glyph-name="scaron" unicode="&#x161;" horiz-adv-x="1024" 
d="M87 340h127v0q49 -257 312 -257q108 0 183 51t75 141q0 72 -65 122q-64 50 -245 89q-208 45 -285 109t-77 182q0 145 104 226q105 81 263 81q175 0 279 -81t130 -255v0h-127v0q-29 225 -277 225q-113 0 -177 -48q-64 -47 -64 -132q0 -68 61 -117q62 -49 230 -87
q226 -53 303 -120q78 -67 78 -186q0 -146 -113 -229q-113 -82 -311 -82q-166 0 -279 103q-113 104 -125 265v0zM481 1164zM500 0zM789 1452l-240 -288h-137l-240 288h133l175 -210v0l176 210h133zM481 1164z" />
    <glyph glyph-name="Ydieresis" unicode="&#x178;" horiz-adv-x="1251" 
d="M16 1472h159l436 -707v0l439 707h161l-528 -828v-644h-139v633zM614 1590zM0 1510zM385 1845h133v-209h-133v209zM710 1845h133v-209h-133v209zM614 1620z" />
    <glyph glyph-name="Zcaron" unicode="&#x17d;" horiz-adv-x="1251" 
d="M63 0v115l948 1238v0h-870v119h1042v-115l-948 -1238v0h955v-119h-1127zM662 1590zM0 1510zM970 1908l-240 -288h-137l-240 288h133l175 -210v0l176 210h133zM662 1620z" />
    <glyph glyph-name="zcaron" unicode="&#x17e;" horiz-adv-x="1024" 
d="M67 0v107l706 846v0h-658v103h816v-107l-706 -846v0h733v-103h-891zM523 1164zM0 1084zM831 1452l-240 -288h-137l-240 288h133l175 -210v0l176 210h133zM523 1164z" />
    <glyph glyph-name="florin" unicode="&#x192;" 
d="M27 -377v0l38 115q41 -27 105 -27q109 0 177 168q59 156 135 610l54 321v0h-221v103h240v0q71 357 159 474q89 117 241 117q73 0 144 -41l-42 -100q-53 30 -96 30h-5q-105 0 -153 -85q-47 -84 -104 -395v0h224v-103h-242v0l-132 -693q-43 -220 -106 -332
q-106 -185 -297 -185q-61 0 -119 23z" />
    <glyph glyph-name="circumflex" unicode="&#x2c6;" horiz-adv-x="682" 
d="M48 1168l240 288h137l240 -288h-133l-176 210v0l-175 -210h-133zM357 1168z" />
    <glyph glyph-name="caron" unicode="&#x2c7;" horiz-adv-x="682" 
d="M665 1456l-240 -288h-137l-240 288h133l175 -210v0l176 210h133zM357 1168z" />
    <glyph glyph-name="macron" unicode="&#x2c9;" horiz-adv-x="682" 
d="M32 1339h608v-91h-608v91zM336 1168z" />
    <glyph glyph-name="breve" unicode="&#x2d8;" horiz-adv-x="682" 
d="M576 1435h77q-12 -118 -93 -185q-80 -66 -211 -66q-125 0 -203 70q-77 71 -82 181h77q37 -160 216 -160q180 0 219 160zM352 1168z" />
    <glyph glyph-name="dotaccent" unicode="&#x2d9;" horiz-adv-x="682" 
d="M272 1393h133v-209h-133v209zM337 1168z" />
    <glyph glyph-name="ring" unicode="&#x2da;" horiz-adv-x="682" 
d="M144 1383q0 85 59 145q59 61 148 61q85 0 141 -59q57 -59 57 -142q0 -91 -56 -148q-56 -56 -142 -56t-147 59q-60 60 -60 140zM213 1385q0 -57 39 -95q40 -37 97 -37q59 0 95 37q36 38 36 95q0 56 -39 95q-39 40 -92 40q-57 0 -97 -40q-39 -39 -39 -95zM348 1168z" />
    <glyph glyph-name="ogonek" unicode="&#x2db;" horiz-adv-x="682" 
d="M304 0h112q-80 -35 -132 -85q-51 -50 -51 -94q0 -50 38 -82t102 -32q44 0 84 17v-92q-48 -16 -103 -16q-92 0 -151 46t-59 125q0 125 160 213zM353 0z" />
    <glyph glyph-name="tilde" unicode="&#x2dc;" horiz-adv-x="682" 
d="M16 1191q8 86 55 142q47 57 127 57q44 0 142 -46q98 -45 150 -45q75 0 86 101h75q-4 -77 -47 -138t-121 -61q-55 0 -149 45q-94 46 -142 46q-67 0 -101 -101h-75zM336 1168z" />
    <glyph glyph-name="hungarumlaut" unicode="&#x2dd;" horiz-adv-x="682" 
d="M96 1168l226 288h158l-280 -288h-104zM432 1168l226 288h158l-280 -288h-104zM341 1168z" />
    <glyph glyph-name="endash" unicode="&#x2013;" horiz-adv-x="1024" 
d="M0 574h1024v-90h-1024v90z" />
    <glyph glyph-name="emdash" unicode="&#x2014;" horiz-adv-x="2048" 
d="M0 574h2048v-90h-2048v90z" />
    <glyph glyph-name="quoteleft" unicode="&#x2018;" horiz-adv-x="455" 
d="M147 1020v240q0 177 150 212v0v-76v0q-71 -36 -71 -130v-66h65v-180h-144z" />
    <glyph glyph-name="quoteright" unicode="&#x2019;" horiz-adv-x="455" 
d="M308 1472v-240q0 -177 -150 -212v0v76v0q71 36 71 130v66h-65v180h144z" />
    <glyph glyph-name="quotesinglbase" unicode="&#x201a;" horiz-adv-x="455" 
d="M308 178v-240q0 -177 -150 -212v0v76v0q71 36 71 130v66h-65v180h144z" />
    <glyph glyph-name="quotedblleft" unicode="&#x201c;" horiz-adv-x="797" 
d="M492 1020v240q0 177 150 212v0v-76v0q-35 -16 -53 -45q-18 -30 -18 -87v-64h65v-180h-144zM188 1020v240q0 177 150 212v0v-76v0q-29 -12 -50 -41q-21 -30 -21 -103v-52h65v-180h-144z" />
    <glyph glyph-name="quotedblright" unicode="&#x201d;" horiz-adv-x="797" 
d="M305 1472v-240q0 -177 -150 -212v0v76v0q35 16 53 45q18 30 18 87v64h-65v180h144zM609 1472v-240q0 -177 -150 -212v0v76v0q29 12 50 41q21 30 21 103v52h-65v180h144z" />
    <glyph glyph-name="quotedblbase" unicode="&#x201e;" horiz-adv-x="797" 
d="M305 178v-240q0 -177 -150 -212v0v76v0q35 16 53 45q18 30 18 87v64h-65v180h144zM609 178v-240q0 -177 -150 -212v0v76v0q29 12 50 41q21 30 21 103v52h-65v180h144z" />
    <glyph glyph-name="dagger" unicode="&#x2020;" 
d="M80 1008h432v464h124v-464h432v-110h-432v-1236h-124v1236h-432v110z" />
    <glyph glyph-name="daggerdbl" unicode="&#x2021;" 
d="M80 1024h432v448h124v-448h432v-110h-432v-694h432v-110h-432v-448h-124v448h-432v110h432v694h-432v110z" />
    <glyph glyph-name="bullet" unicode="&#x2022;" horiz-adv-x="1024" 
d="M138 730q0 149 102 260q103 111 263 111q159 0 265 -110q106 -109 106 -261q0 -157 -107 -261q-106 -104 -261 -104q-151 0 -260 106q-108 107 -108 259z" />
    <glyph glyph-name="ellipsis" unicode="&#x2026;" horiz-adv-x="2048" 
d="M269 180h150v-180h-150v180zM957 180h150v-180h-150v180zM1645 0v180h150v-180h-150z" />
    <glyph glyph-name="perthousand" unicode="&#x2030;" horiz-adv-x="2048" 
d="M176 -30l836 1469h108l-836 -1469h-108zM665 307q0 126 89 216q90 90 218 90q127 0 216 -87q90 -86 90 -220q0 -127 -90 -217q-90 -89 -217 -89q-128 0 -217 92q-89 93 -89 215zM782 309q0 -80 55 -136t133 -56q84 0 137 55q54 55 54 133q0 84 -54 137q-53 54 -134 54
q-77 0 -134 -55q-57 -54 -57 -132zM1407 307q0 126 89 216q90 90 218 90q123 0 214 -86q92 -86 92 -221q0 -127 -83 -217q-83 -89 -224 -89q-126 0 -216 89t-90 218zM1524 309q0 -90 57 -141t131 -51q82 0 136 53q55 54 55 135q0 84 -54 137q-53 54 -134 54q-74 0 -133 -56
q-58 -56 -58 -131zM29 1118q0 126 89 216q90 90 218 90q139 0 222 -90q84 -89 84 -217q0 -130 -89 -218q-88 -88 -218 -88q-136 0 -221 90q-85 91 -85 217zM146 1120q0 -78 56 -135t132 -57q79 0 135 55t56 133q0 82 -56 136q-55 55 -132 55q-79 0 -135 -55
q-56 -54 -56 -132z" />
    <glyph glyph-name="guilsinglleft" unicode="&#x2039;" horiz-adv-x="797" 
d="M547 822v-130l-218 -160l218 -161v-127l-304 224v130z" />
    <glyph glyph-name="guilsinglright" unicode="&#x203a;" horiz-adv-x="797" 
d="M250 244v130l218 160l-218 161v127l304 -224v-130z" />
    <glyph glyph-name="foursuperior" unicode="&#x2074;" horiz-adv-x="682" 
d="M16 925l437 595h75v-599h132v-66h-132v-215h-86v215h-426v70zM98 921v0h344v477v0z" />
    <glyph glyph-name="Euro" unicode="&#x20ac;" 
d="M319 893h600l-20 -111h-586q-2 -34 -2 -70q0 -40 2 -74h542l-25 -111h-509q51 -446 355 -446q242 0 304 224h131q-102 -335 -439 -335q-424 0 -482 557h-153l25 111h120q-2 36 -2 74q0 35 2 70h-145l25 111h128q60 546 481 546q337 0 438 -351h-131q-65 240 -304 240
q-314 0 -355 -435z" />
    <glyph glyph-name="trademark" unicode="&#x2122;" horiz-adv-x="1925" 
d="M288 608v782h-275v82h656v-82h-275v-782h-106zM829 608v864h196l240 -641v0l237 641h196v-864h-106v783l-294 -783h-69l-294 783v-783h-106z" />
    <glyph glyph-name="minus" unicode="&#x2212;" horiz-adv-x="1352" 
d="M160 453v127h1024v-127h-1024z" />
    <glyph glyph-name="fraction" unicode="&#x2215;" horiz-adv-x="342" 
d="M-336 -30l904 1469h104l-904 -1469h-104z" />
    <glyph glyph-name="periodcentered" unicode="&#x2219;" horiz-adv-x="569" 
d="M192 716q0 40 30 69q31 29 71 29q41 0 70 -29t29 -69q0 -43 -28 -72q-28 -28 -71 -28q-44 0 -73 29q-28 30 -28 71z" />
    <glyph glyph-name="unif001" unicode="&#xf001;" horiz-adv-x="1024" 
d="M28 1056h160v173q0 130 55 200q56 71 170 71q70 0 106 -8v-113q-36 10 -77 10q-61 0 -96 -38t-35 -135v-160h208v-103h-208v-953h-123v953h-160v103zM764 1056h123v-1056h-123v1056zM758 1463h135v-183h-135v183z" />
    <glyph glyph-name="unif002" unicode="&#xf002;" horiz-adv-x="1024" 
d="M28 1056h160v154q0 144 54 217q55 73 171 73q70 0 106 -8v-113q-36 10 -77 10q-71 0 -101 -45q-30 -44 -30 -136v-152h208v-103h-208v-953h-123v953h-160v103zM764 0v1472h123v-1472h-123z" />
    <glyph glyph-name="glyph235" unicode="&#xb7;" horiz-adv-x="569" 
d="M192 716q0 40 30 69q31 29 71 29q41 0 70 -29t29 -69q0 -43 -28 -72q-28 -28 -71 -28q-44 0 -73 29q-28 30 -28 71z" />
    <glyph glyph-name="glyph236" unicode="&#xa0;" horiz-adv-x="569" 
 />
    <glyph glyph-name="glyph237" unicode="&#xfb01;" horiz-adv-x="1024" 
d="M28 1056h160v173q0 130 55 200q56 71 170 71q70 0 106 -8v-113q-36 10 -77 10q-61 0 -96 -38t-35 -135v-160h208v-103h-208v-953h-123v953h-160v103zM764 1056h123v-1056h-123v1056zM758 1463h135v-183h-135v183z" />
    <glyph glyph-name="glyph238" unicode="&#xfb02;" horiz-adv-x="1024" 
d="M28 1056h160v154q0 144 54 217q55 73 171 73q70 0 106 -8v-113q-36 10 -77 10q-71 0 -101 -45q-30 -44 -30 -136v-152h208v-103h-208v-953h-123v953h-160v103zM764 0v1472h123v-1472h-123z" />
    <glyph glyph-name="glyph239" unicode="&#x2044;" horiz-adv-x="342" 
d="M-336 -30l904 1469h104l-904 -1469h-104z" />
  </font>
</defs>
</svg>
