<?xml version="1.0" encoding="utf-8"?>
<!-- Generator: Adobe Illustrator 16.0.0, SVG Export Plug-In . SVG Version: 6.00 Build 0)  -->
<!DOCTYPE svg PUBLIC "-//W3C//DTD SVG 1.1//EN" "http://www.w3.org/Graphics/SVG/1.1/DTD/svg11.dtd">
<svg version="1.1" id="Layer_1" xmlns="http://www.w3.org/2000/svg" xmlns:xlink="http://www.w3.org/1999/xlink" x="0px" y="0px"
	 width="612px" height="792px" viewBox="0 0 612 792" enable-background="new 0 0 612 792" xml:space="preserve">
<g id="Calque_1">
	<path id="XMLID_60_" fill="#333333" d="M299.545,347.367c-2.583-12.912-8.608-24.102-15.494-32.709
		c-17.215-23.241-39.595-44.76-61.975-62.836c-7.747-6.025-51.646-19.797-49.924-30.126c0.86-7.747,17.215-7.747,22.38-8.608
		c9.468-1.721,18.075-9.468,27.544-8.607c21.519,1.722,41.316,37.874,52.507,53.367c18.075,24.102,30.987,52.507,37.873,81.772
		c1.722,6.886,5.165,8.607,10.329,6.025c7.747-3.443,14.633-6.887,21.52-11.19c49.924-27.544,100.709-16.354,134.278,27.545
		c30.126,39.595,33.569,85.215,25.822,130.835c-9.468,55.949-32.708,104.152-71.442,144.607
		c-8.607,8.607-18.076,15.494-28.405,21.52c-24.962,14.633-49.063,8.607-73.165-1.722c-14.633-6.025-29.266-9.469-43.898-2.582
		c-52.507,24.101-82.633,13.771-123.089-35.292c-38.734-47.342-59.393-102.43-61.114-166.126
		c-2.582-66.278,36.152-121.367,98.127-135.14c20.658-4.304,38.734,0.861,56.811,11.19
		C270.278,336.177,283.19,343.924,299.545,347.367z"/>
	<path id="XMLID_53_" fill="#333333" d="M325.367,336.177c-26.684-80.911,8.608-180.76,103.292-227.24
		c2.582-1.722,6.024-5.165,6.886,2.582c1.722,49.063,0,91.24-24.962,129.114c-12.051,18.076-26.684,32.709-42.178,46.48
		C352.051,301.746,337.418,317.24,325.367,336.177z"/>
</g>
<g id="Calque_3" display="none">
	<path id="XMLID_158_" display="inline" fill="#030405" d="M511.292,336.177c-42.178,58.532-82.633,117.924-122.229,177.316
		c-19.797,29.266-42.177,59.393-58.531,90.38c-6.886,13.772-19.798,52.506-40.456,27.544c-3.443-4.304-7.747-8.607-12.051-12.051
		c-37.013-24.101-36.151-24.101-11.189-58.531c19.797-27.544,35.291-57.671,52.506-86.937
		c14.634-25.823,30.988-51.646,48.203-74.886c21.519-29.267,38.734-61.114,59.393-91.241c12.911-18.937,20.658-25.822,43.898-11.189
		C488.051,307.772,501.823,316.38,511.292,336.177z"/>
	<path id="XMLID_157_" display="inline" fill="#030405" d="M108.456,500.582c0-2.583,0-5.165,1.722-7.747
		c9.468-16.354,21.519-30.127,30.987-45.62c10.329-18.076,24.101-34.431,35.291-51.646c12.051-18.937,24.962-35.291,36.151-55.089
		c28.405-49.924,59.393-98.987,94.685-144.607c9.468-12.051,13.771-32.709,30.126-36.151c16.354-3.443,47.342,30.126,59.393,40.455
		c2.582,2.582,5.165,4.304,5.165,7.747c2.582,8.607-7.747,14.633-15.494,19.798c-12.911,8.607-20.658,23.24-28.405,36.151
		c-26.684,44.76-57.671,86.076-89.519,127.393c-21.52,27.544-39.596,57.671-59.393,86.937c-8.607,12.051-18.076,23.24-24.962,36.151
		c-6.025,10.329-7.747,24.963-20.658,30.127C145.469,553.088,109.316,522.101,108.456,500.582z"/>
	<path id="XMLID_156_" display="inline" fill="#030405" d="M266.836,212.228c-4.304,17.215-20.658,35.291-32.709,53.367
		c-28.405,43.038-60.253,84.354-84.354,130.835c-11.189,20.658-36.152,23.241-54.228,7.747c-5.165-4.304-9.469-8.607-15.494-12.051
		c-16.354-10.329-18.937-25.822-6.025-40.455c36.152-43.038,61.975-92.962,93.823-138.583
		c10.329-14.633,24.101-26.684,30.987-43.037c1.722-3.443,5.164-6.025,8.607-6.887C223.798,156.279,266.836,188.126,266.836,212.228
		z"/>
	<path id="XMLID_155_" display="inline" fill="#030405" d="M431.241,640.025c-18.076-10.329-37.013-18.075-52.507-30.987
		c-6.886-6.025-11.189-19.797,0.861-34.43c13.771-18.076,82.633-142.025,101.569-129.114c12.911,8.607,27.544,15.494,39.595,25.823
		c12.912,10.329,9.469,19.797,1.722,30.987c-7.747,11.189-12.051,19.797-18.076,31.848c-14.633,31.849-40.455,57.671-54.228,90.38
		C446.734,631.417,440.709,638.304,431.241,640.025z"/>
	<path id="XMLID_154_" display="inline" fill="#060609" d="M204.861,670.152c-0.861-0.86-1.722-0.86-2.583-1.722
		c-12.911-9.468-31.848-24.102-43.037-37.013c-11.19-12.911,6.886-24.101,13.771-36.151
		c55.949-86.076,111.899-171.291,166.988-258.228c5.164-8.608,7.746-22.38,15.493-28.405c8.607-6.887,30.987-1.722,32.709,12.051
		c0.86,5.164-6.886,11.189-10.329,16.354c-12.911,18.075-22.38,40.455-32.709,59.392c-4.304,6.887-8.607,13.772-12.911,20.658
		c-6.025,9.469-12.912,19.798-18.937,29.266c-14.634,22.38-31.849,43.038-46.481,64.558c-9.469,14.633-19.798,29.266-29.266,43.898
		c-10.329,15.494-29.267,31.849-24.963,52.507c2.583,12.911,33.57,26.684,30.987,30.126
		C233.265,652.075,222.076,680.481,204.861,670.152z"/>
</g>
<g id="Calque_2" display="none">
	<g id="XMLID_120_" display="inline">
		<path id="XMLID_308_" d="M216.912,340.481c0-41.316,0-80.911,0-122.228c16.354,0,30.126,0,46.48,0c0,41.316,0,80.911,0,122.228
			C247.899,340.481,233.265,340.481,216.912,340.481z"/>
		<path id="XMLID_124_" d="M141.165,340.481c0-41.316,0-80.911,0-122.228c16.354,0,30.126,0,46.48,0c0,41.316,0,80.911,0,122.228
			C171.291,340.481,157.519,340.481,141.165,340.481z"/>
		<path id="XMLID_121_" d="M89.519,340.481c0-41.316,0-80.911,0-122.228c10.329,0,19.797,0,30.126,0c0,41.316,0,80.911,0,122.228
			C109.316,340.481,100.709,340.481,89.519,340.481z"/>
		<path id="XMLID_123_" d="M547.443,280.228l-124.81-124.811l0.86,63.696c-13.772,0-126.532,0-139.443,0
			c0,41.316,0,80.912,0,121.367c13.772,0,128.254,0,141.165,0l0.86,63.696L547.443,280.228z"/>
	</g>
	<g id="XMLID_126_" display="inline">
		<path id="XMLID_130_" d="M395.089,451.519c0,41.316,0,80.911,0,122.228c-16.354,0-30.126,0-46.48,0c0-41.316,0-80.911,0-122.228
			C364.963,451.519,378.734,451.519,395.089,451.519z"/>
		<path id="XMLID_129_" d="M470.836,451.519c0,41.316,0,80.911,0,122.228c-16.354,0-30.127,0-46.481,0c0-41.316,0-80.911,0-122.228
			C440.709,451.519,454.481,451.519,470.836,451.519z"/>
		<path id="XMLID_128_" d="M522.481,451.519c0,41.316,0,80.911,0,122.228c-10.329,0-19.798,0-30.127,0c0-41.316,0-80.911,0-122.228
			C502.683,451.519,511.292,451.519,522.481,451.519z"/>
		<path id="XMLID_127_" d="M64.557,510.911l125.671,125.671l-0.861-63.696c13.772,0,126.532,0,139.443,0
			c0-41.316,0-80.911,0-121.367c-13.772,0-128.253,0-141.165,0l-0.86-63.696L64.557,510.911z"/>
	</g>
</g>
</svg>
