<?xml version="1.0" standalone="no"?><!-- Generator: Gravit.io --><svg xmlns="http://www.w3.org/2000/svg" xmlns:xlink="http://www.w3.org/1999/xlink" style="isolation:isolate" viewBox="0 0 612 792" width="612" height="792"><defs><clipPath id="_clipPath_RwlPUmatiH0GFe4wxte6a3GBmLO0FGLD"><rect width="612" height="792"/></clipPath></defs><g clip-path="url(#_clipPath_RwlPUmatiH0GFe4wxte6a3GBmLO0FGLD)"><g><path d=" M 299.545 347.367 C 296.962 334.455 290.937 323.265 284.051 314.658 C 266.836 291.417 244.456 269.898 222.076 251.822 C 214.329 245.797 170.43 232.025 172.152 221.696 C 173.012 213.949 189.367 213.949 194.532 213.088 C 204 211.367 212.607 203.62 222.076 204.481 C 243.595 206.203 263.392 242.355 274.583 257.848 C 292.658 281.95 305.57 310.355 312.456 339.62 C 314.178 346.506 317.621 348.227 322.785 345.645 C 330.532 342.202 337.418 338.758 344.305 334.455 C 394.229 306.911 445.014 318.101 478.583 362 C 508.709 401.595 512.152 447.215 504.405 492.835 C 494.937 548.784 471.697 596.987 432.963 637.442 C 424.356 646.049 414.887 652.936 404.558 658.962 C 379.596 673.595 355.495 667.569 331.393 657.24 C 316.76 651.215 302.127 647.771 287.495 654.658 C 234.988 678.759 204.862 668.429 164.406 619.366 C 125.672 572.024 105.013 516.936 103.292 453.24 C 100.71 386.962 139.444 331.873 201.419 318.1 C 222.077 313.796 240.153 318.961 258.23 329.29 C 270.278 336.177 283.19 343.924 299.545 347.367 Z " fill="rgb(255,255,255)"/><path d=" M 325.367 336.177 C 298.683 255.266 333.975 155.417 428.659 108.937 C 431.241 107.215 434.683 103.772 435.545 111.519 C 437.267 160.582 435.545 202.759 410.583 240.633 C 398.532 258.709 383.899 273.342 368.405 287.113 C 352.051 301.746 337.418 317.24 325.367 336.177 Z " fill="rgb(255,255,255)"/></g></g></svg>