<?xml version="1.0" standalone="no"?>
<!DOCTYPE svg PUBLIC "-//W3C//DTD SVG 1.1//EN" "http://www.w3.org/Graphics/SVG/1.1/DTD/svg11.dtd" >
<svg>
<metadata>
Created by FontForge 20090622 at Tue Apr 21 07:59:28 2015
 By deploy user
Digital data &#194;&#169;2005 Monotype Imaging Inc. All Rights Reserved.
</metadata>
<defs>
<font id="HelveticaBlack" horiz-adv-x="1366" >
  <font-face 
    font-family="Helvetica-Black"
    font-weight="700"
    font-stretch="normal"
    units-per-em="2048"
    panose-1="2 11 9 4 3 5 2 3 2 4"
    ascent="1638"
    descent="-410"
    x-height="1072"
    cap-height="1622"
    bbox="-342 -512 2064 2043"
    underline-thickness="102"
    underline-position="-154"
    unicode-range="U+0020-U+FB02"
  />
<missing-glyph horiz-adv-x="1022" 
d="M76 0v1106h870v-1106h-870zM332 256h358v594h-358v-594z" />
    <glyph glyph-name=".notdef" horiz-adv-x="1022" 
d="M76 0v1106h870v-1106h-870zM332 256h358v594h-358v-594z" />
    <glyph glyph-name=".null" horiz-adv-x="0" 
 />
    <glyph glyph-name="nonmarkingreturn" horiz-adv-x="682" 
 />
    <glyph glyph-name="space" unicode=" " horiz-adv-x="682" 
 />
    <glyph glyph-name="exclam" unicode="!" horiz-adv-x="682" 
d="M217 541l-102 567v364h435v-364l-102 -567h-231zM122 0v396h421v-396h-421z" />
    <glyph glyph-name="quotedbl" unicode="&#x22;" horiz-adv-x="1024" 
d="M576 1472h244v-560h-244v560zM201 1472h244v-560h-244v560z" />
    <glyph glyph-name="numbersign" unicode="#" horiz-adv-x="1352" 
d="M173 455v190h232v0l26 176v0h-205v190h230v0l61 429v0v0h180l-59 -429v0h168v0l57 429h186l-61 -429v0h181v-190h-208v0l-24 -176v0h179v-190h-206v0l-65 -455h-180l61 455v0h-168v0l-65 -455v0v0h-180v0l63 455v0h-203zM585 645v0h167v0l27 176v0h-170v0z" />
    <glyph glyph-name="dollar" unicode="$" 
d="M46 466h366q0 -181 173 -221v320q-284 71 -398 173q-114 103 -114 272q0 378 512 453v0v128h173v-128q524 -35 524 -448h-366q0 70 -46 116q-45 47 -112 47v-275q335 -96 439 -208q105 -111 105 -269q0 -437 -544 -456v-192h-173v192v0q-247 5 -393 138t-146 358z
M758 530v-295q77 0 127 38q51 38 51 93q0 64 -44 105q-43 41 -134 59zM585 1188q-55 0 -101 -37q-45 -37 -45 -84q0 -48 39 -81t107 -54v256z" />
    <glyph glyph-name="percent" unicode="%" horiz-adv-x="2048" 
d="M480 -45l866 1560h206l-866 -1560h-206zM1128 405q0 185 132 317q133 132 324 132q185 0 316 -132q132 -132 132 -318q0 -185 -122 -317t-326 -132q-196 0 -326 127t-130 323zM1408 406q0 -73 50 -125q51 -51 125 -51q76 0 122 49q47 49 47 124q0 72 -49 124
q-48 52 -120 52q-74 0 -125 -51q-50 -50 -50 -122zM16 1066q0 192 131 320q132 129 325 129q185 0 316 -128q132 -127 132 -322q0 -183 -126 -316t-322 -133q-193 0 -325 123q-131 124 -131 327zM296 1067q0 -73 48 -125q48 -51 127 -51q72 0 120 50q49 50 49 123
q0 72 -48 124q-47 52 -121 52q-73 0 -124 -51q-51 -50 -51 -122z" />
    <glyph glyph-name="ampersand" unicode="&#x26;" horiz-adv-x="1821" 
d="M401 829v0q-129 130 -129 279q0 176 146 270q147 94 355 94v0q211 0 352 -104t141 -289q0 -239 -258 -380v0l127 -123v0q77 59 107 130h393q-119 -237 -248 -367v0l344 -339h-513l-119 125v0q-75 -64 -206 -114q-130 -49 -274 -49q-246 0 -387 113q-141 114 -141 300
q0 301 310 454zM649 581v0q-150 -78 -150 -170q0 -60 40 -99q41 -38 112 -38q40 0 100 25q60 26 119 63v0zM766 935v0q65 30 109 68q44 39 44 94q0 54 -35 85q-34 32 -98 32q-69 0 -107 -34q-37 -33 -37 -75q0 -39 33 -84q33 -44 91 -86z" />
    <glyph glyph-name="quotesingle" unicode="'" horiz-adv-x="569" 
d="M160 1472h244v-560h-244v560z" />
    <glyph glyph-name="parenleft" unicode="(" horiz-adv-x="797" 
d="M313 -368q-112 227 -169 450q-57 222 -57 484q0 418 227 906h366q-199 -513 -199 -913q0 -206 37 -405t155 -522h-360z" />
    <glyph glyph-name="parenright" unicode=")" horiz-adv-x="797" 
d="M482 1472q112 -227 169 -450q57 -222 57 -484q0 -418 -227 -906h-366q199 513 199 913q0 206 -37 405t-155 522h360z" />
    <glyph glyph-name="asterisk" unicode="*" horiz-adv-x="1139" 
d="M109 1056l75 224l277 -96v288h224v-288l277 96l75 -211l-284 -90v0l190 -236l-183 -145l-184 256v0l-183 -256l-190 138l190 243v0z" />
    <glyph glyph-name="plus" unicode="+" horiz-adv-x="1352" 
d="M160 643h400v400h238v-400h400v-238h-400v-400h-238v400h-400v238z" />
    <glyph glyph-name="comma" unicode="," horiz-adv-x="682" 
d="M122 -190v0q81 8 136 57q57 49 61 133h-197v416h434v-361q0 -205 -127 -314q-126 -109 -307 -109v0v178z" />
    <glyph glyph-name="hyphen" unicode="-" horiz-adv-x="682" 
d="M64 711h544v-376h-544v376z" />
    <glyph glyph-name="period" unicode="." horiz-adv-x="682" 
d="M122 422h434v-422h-434v422z" />
    <glyph glyph-name="slash" unicode="/" horiz-adv-x="569" 
d="M-68 -184l446 1656h258l-446 -1656h-258z" />
    <glyph glyph-name="zero" unicode="0" 
d="M60 740q0 341 168 532t466 191q294 0 459 -191t165 -532q0 -370 -160 -570t-464 -200q-303 0 -469 194q-165 194 -165 576zM486 713v-50q0 -172 49 -273q49 -100 156 -100q99 0 150 107q51 108 51 346q0 192 -51 296q-50 104 -154 104q-100 0 -151 -106
q-50 -106 -50 -324z" />
    <glyph glyph-name="one" unicode="1" 
d="M272 1129q384 0 436 334h326v-1463h-426v839h-336v290z" />
    <glyph glyph-name="two" unicode="2" 
d="M93 0v0q0 194 100 328q100 135 273 251l231 160q93 62 139 126q47 64 47 131q0 66 -50 106q-49 41 -119 41q-208 0 -208 -272h-386q7 592 613 592q258 0 417 -123t159 -343q0 -183 -142 -303q-141 -120 -387 -249q-114 -61 -148 -96v0h670v-349h-1209z" />
    <glyph glyph-name="three" unicode="3" 
d="M73 498h399v0q0 -104 52 -156q53 -52 155 -52q80 0 136 45q56 46 56 120q0 83 -58 121q-58 39 -191 39h-21v0v250h43q110 0 165 40q55 41 55 111q0 59 -44 93q-43 34 -125 34q-169 0 -189 -160h-386q0 208 156 344q157 136 430 136q234 0 392 -104q159 -104 159 -302
q0 -192 -166 -282q206 -82 206 -302q0 -248 -169 -376q-169 -127 -467 -127q-278 0 -433 139t-155 389v0z" />
    <glyph glyph-name="four" unicode="4" 
d="M53 643l673 797h399v-820h180v-320h-180v-300h-406v300h-666v343zM379 620v0h340v437v0z" />
    <glyph glyph-name="five" unicode="5" 
d="M46 373l426 45v0q17 -56 68 -92q52 -36 131 -36q88 0 148 51q60 52 60 138q0 95 -48 149q-48 55 -138 55q-125 0 -181 -82l-399 15l146 824h926v-349h-633v0l-46 -218q111 80 300 80q226 0 362 -127q137 -127 137 -334q0 -253 -169 -388q-169 -134 -480 -134
q-482 0 -610 403v0z" />
    <glyph glyph-name="six" unicode="6" 
d="M479 842q146 105 338 105q212 0 353 -125t141 -344q0 -243 -151 -376q-151 -132 -429 -132q-355 0 -528 215q-150 190 -150 532q0 340 166 543t470 203q499 0 589 -375l-399 -25q-36 110 -175 110q-108 0 -167 -82q-58 -81 -58 -249zM499 460q0 -76 55 -131
q55 -54 143 -54q83 0 135 51q53 51 53 150q0 83 -48 137t-134 54t-145 -57q-59 -56 -59 -150z" />
    <glyph glyph-name="seven" unicode="7" 
d="M358 0q13 277 142 564q129 288 361 527v0h-749v349h1168v-326q-227 -179 -355 -503t-128 -611h-439z" />
    <glyph glyph-name="eight" unicode="8" 
d="M294 751q-101 55 -144 123q-42 68 -42 177q0 185 155 298q156 114 431 114q234 0 397 -107t163 -297q0 -224 -186 -300q234 -94 234 -333q0 -207 -165 -332q-165 -124 -451 -124q-284 0 -455 119t-171 336q0 220 234 326zM486 447q0 -77 53 -125q54 -47 153 -47
q82 0 133 48t51 124q0 92 -52 137q-52 46 -137 46q-98 0 -150 -49q-51 -49 -51 -134zM501 1012q0 -69 50 -111q51 -41 130 -41t129 42q51 42 51 111q0 72 -49 116q-48 44 -127 44q-82 0 -133 -48q-51 -47 -51 -113z" />
    <glyph glyph-name="nine" unicode="9" 
d="M86 345l399 25q33 -110 172 -110q113 0 170 82q58 82 58 249q-148 -105 -338 -105q-234 0 -364 141t-130 328q0 244 156 376q157 132 429 132q326 0 499 -187q174 -187 174 -560q0 -339 -166 -543q-165 -203 -470 -203q-500 0 -589 375zM479 960q0 -84 47 -139
q48 -55 138 -55q88 0 144 52q57 52 57 155q0 75 -59 130q-58 55 -136 55q-109 0 -150 -57q-41 -56 -41 -141z" />
    <glyph glyph-name="colon" unicode=":" horiz-adv-x="682" 
d="M122 1073h434v-422h-434v422zM122 422h434v-422h-434v422z" />
    <glyph glyph-name="semicolon" unicode=";" horiz-adv-x="682" 
d="M122 -190v0q81 8 136 57q57 49 61 133h-197v416h434v-361q0 -205 -127 -314q-126 -109 -307 -109v0v178zM122 1073h434v-422h-434v422z" />
    <glyph glyph-name="less" unicode="&#x3c;" horiz-adv-x="1352" 
d="M164 421l1040 -456v263l-727 291v0l727 312v263l-1040 -469v-204z" />
    <glyph glyph-name="equal" unicode="=" horiz-adv-x="1352" 
d="M160 441h1040v-238h-1040v238zM160 839h1040v-238h-1040v238z" />
    <glyph glyph-name="greater" unicode="&#x3e;" horiz-adv-x="1352" 
d="M1184 421l-1040 -456v263l727 291v0l-727 312v263l1040 -469v-204z" />
    <glyph glyph-name="question" unicode="?" horiz-adv-x="1251" 
d="M379 396h421v-396h-421v396zM54 1035q9 215 159 345q151 130 421 130t407 -107q138 -107 138 -314q0 -63 -24 -116q-23 -53 -78 -95q-75 -56 -183 -127q-115 -75 -115 -150v-45h-380v55q0 123 40 200q41 77 180 137q64 29 98 57q35 29 35 77q0 59 -37 88q-37 30 -111 30
q-56 0 -93 -41q-36 -41 -36 -124h-421z" />
    <glyph glyph-name="at" unicode="@" horiz-adv-x="1516" 
d="M1517 889q0 -276 -175 -435q-175 -158 -339 -158q-116 0 -116 112v0q-96 -96 -203 -96q-143 0 -247 100q-104 101 -104 256q0 192 119 329q120 137 304 137q162 0 253 -128l19 111h195l-108 -602q-4 -27 -4 -37q0 -29 35 -29q74 0 139 107q66 108 66 260q0 243 -151 376
q-151 134 -401 134q-251 0 -415 -167q-163 -166 -163 -420q0 -264 165 -426q166 -161 441 -161q212 0 389 136h205q-234 -320 -609 -320q-333 0 -565 212q-231 212 -231 559q0 334 230 552q230 219 556 219q318 0 516 -182q199 -182 199 -439zM951 747q0 75 -45 123t-118 48
q-93 0 -151 -68t-58 -145q0 -84 44 -131q45 -46 116 -46q87 0 149 64q63 65 63 155z" />
    <glyph glyph-name="A" unicode="A" horiz-adv-x="1593" 
d="M23 0l528 1472h491l528 -1472h-483l-55 192v0h-480v0l-53 -192h-476zM644 498v0h302v0l-153 525v0zM797 1622zM1117 0zM0 1510z" />
    <glyph glyph-name="B" unicode="B" horiz-adv-x="1593" 
d="M151 0v1472h705q594 0 594 -369q0 -101 -52 -186q-52 -84 -144 -135q127 -36 188 -126q61 -89 61 -222q0 -434 -613 -434h-739zM634 344h223q193 0 193 132q0 87 -62 112q-61 26 -188 26h-166v-270zM634 883h201q162 0 162 134q0 111 -172 111h-191v-245z" />
    <glyph glyph-name="C" unicode="C" horiz-adv-x="1593" 
d="M1068 570h468q-39 -290 -228 -449q-188 -159 -477 -159q-366 0 -576 208q-210 209 -210 566q0 338 201 556q202 218 537 218q333 0 520 -160q188 -159 217 -448h-461q-10 111 -77 179q-66 69 -178 69q-276 0 -276 -424q0 -215 72 -310q73 -94 221 -94q103 0 167 64
q65 65 80 184zM791 1622zM831 0z" />
    <glyph glyph-name="D" unicode="D" horiz-adv-x="1593" 
d="M136 0v1472h667q351 0 547 -181q197 -181 197 -526q0 -377 -193 -571t-573 -194h-645zM619 344h96q349 0 349 395q0 240 -86 314q-86 75 -265 75h-94v-784zM742 1622zM0 1510z" />
    <glyph glyph-name="E" unicode="E" horiz-adv-x="1479" 
d="M159 0v1472h1203v-344h-720v-209h607v-344h-607v-231h750v-344h-1233zM761 1622zM761 0zM0 1510z" />
    <glyph glyph-name="F" unicode="F" 
d="M151 0v1472h1139v-344h-656v-270h520v-344h-520v-514h-483z" />
    <glyph glyph-name="G" unicode="G" horiz-adv-x="1706" 
d="M921 496v317h653v-821h-310l-15 146q-81 -93 -192 -135q-111 -41 -245 -41q-351 0 -550 224q-179 204 -179 532q0 358 209 575q210 217 564 217q282 0 471 -142q190 -141 232 -402v0h-461v0q-26 91 -88 137q-61 47 -159 47q-141 0 -213 -119q-72 -118 -72 -311
q0 -210 81 -304q82 -94 229 -94q90 0 163 51t90 123h-208zM867 1622zM804 0z" />
    <glyph glyph-name="H" unicode="H" horiz-adv-x="1706" 
d="M143 1472h483v-494h461v494h483v-1472h-483v575h-461v-575h-483v1472z" />
    <glyph glyph-name="I" unicode="I" horiz-adv-x="797" 
d="M159 1472h483v-1472h-483v1472zM401 1622zM401 0zM0 1510z" />
    <glyph glyph-name="J" unicode="J" 
d="M99 634h422v-14q0 -161 32 -230q33 -68 101 -68q125 0 125 193v957h483v-914q0 -305 -150 -451q-150 -145 -426 -145q-282 0 -439 140q-156 141 -156 411q0 50 8 121z" />
    <glyph glyph-name="K" unicode="K" horiz-adv-x="1706" 
d="M151 0v1472h483v-477v0l426 477h566l-534 -546v0l594 -926h-581l-351 586v0l-120 -120v-466h-483zM919 0z" />
    <glyph glyph-name="L" unicode="L" 
d="M159 1472h483v-1128h656v-344h-1139v1472zM439 1622zM729 0zM0 1510z" />
    <glyph glyph-name="M" unicode="M" horiz-adv-x="1933" 
d="M121 1472h581l257 -920v0l257 920h581v-1472h-430v851v0l-242 -851h-332l-242 851v0v-851h-430v1472z" />
    <glyph glyph-name="N" unicode="N" horiz-adv-x="1706" 
d="M143 1472h453l507 -770v0v770h461v-1472h-453l-507 776v0v-776h-461v1472zM854 1622zM854 0zM0 1510z" />
    <glyph glyph-name="O" unicode="O" horiz-adv-x="1706" 
d="M83 748q0 354 216 558q217 204 554 204q348 0 558 -212q211 -211 211 -556q0 -354 -208 -567q-207 -213 -555 -213q-361 0 -569 210q-207 210 -207 576zM566 746q0 -194 73 -309t214 -115q138 0 212 106q74 107 74 311q0 178 -76 294q-75 117 -215 117q-136 0 -209 -108
q-73 -107 -73 -296zM859 1622z" />
    <glyph glyph-name="P" unicode="P" horiz-adv-x="1479" 
d="M113 1472h721q291 0 458 -121q168 -121 168 -373q0 -249 -156 -384q-156 -134 -448 -134h-260v-460h-483v1472zM596 1128v-324h209q202 0 202 166q0 158 -268 158h-143z" />
    <glyph glyph-name="Q" unicode="Q" horiz-adv-x="1706" 
d="M1448 216v0l166 -165l-204 -215l-192 194v0q-164 -68 -358 -68q-359 0 -568 213t-209 573q0 336 206 549t564 213q345 0 557 -213t212 -560q0 -316 -174 -521zM954 716l161 -158v0q24 71 24 183q0 185 -78 297t-213 112q-126 0 -204 -105t-78 -299q0 -198 73 -311
q74 -113 211 -113q29 0 67 10v0l-167 169z" />
    <glyph glyph-name="R" unicode="R" horiz-adv-x="1593" 
d="M1528 0h-491q-22 65 -22 271q0 150 -47 196q-46 47 -176 47h-28h-153v-514h-483v1472h684q318 0 463 -69q200 -94 200 -350q0 -155 -71 -245q-71 -89 -178 -114q149 -45 199 -128q50 -82 50 -256v-149q0 -118 53 -118v-43zM1022 977q0 151 -202 151h-209v-291h188
q223 0 223 140zM765 1622zM823 0zM0 1510z" />
    <glyph glyph-name="S" unicode="S" horiz-adv-x="1479" 
d="M64 458h461v0q11 -72 73 -115q62 -42 144 -42h12q87 0 136 27q50 28 50 82q0 46 -53 77t-198 68l-188 50q-204 51 -305 161q-100 110 -100 276q0 204 161 336q162 132 476 132q266 0 431 -116q166 -115 196 -348v0h-461v0q-26 125 -194 125q-141 0 -141 -85
q0 -68 130 -108l285 -84q244 -70 336 -170q93 -100 93 -257q0 -229 -174 -367q-173 -138 -514 -138q-267 0 -457 135q-189 136 -199 361v0zM727 1622zM717 0z" />
    <glyph glyph-name="T" unicode="T" horiz-adv-x="1479" 
d="M64 1472h1347v-387h-432v-1085h-483v1085h-432v387zM738 1622zM738 0zM0 1510z" />
    <glyph glyph-name="U" unicode="U" horiz-adv-x="1706" 
d="M143 1472h483v-903q0 -125 56 -186t165 -61q105 0 164 61q60 62 60 195v894h483v-838q0 -347 -163 -510q-163 -162 -537 -162q-378 0 -545 162q-166 163 -166 510v838zM849 1622zM849 0zM0 1510z" />
    <glyph glyph-name="V" unicode="V" horiz-adv-x="1593" 
d="M785 495v0l263 977h491l-512 -1472h-483l-496 1472h491z" />
    <glyph glyph-name="W" unicode="W" horiz-adv-x="2048" 
d="M16 1472h468l172 -914v0l176 914h400l176 -914v0l172 914h468l-368 -1472h-476l-176 857v0l-168 -857h-476z" />
    <glyph glyph-name="X" unicode="X" horiz-adv-x="1593" 
d="M15 0l523 771v0l-470 701h544l204 -368v0l207 368h544l-492 -701v0l500 -771h-544l-235 414v0l-237 -414h-544z" />
    <glyph glyph-name="Y" unicode="Y" horiz-adv-x="1593" 
d="M16 1472h544l249 -500v0l242 500h536l-544 -926v-546h-483v535zM802 1622zM0 1510z" />
    <glyph glyph-name="Z" unicode="Z" horiz-adv-x="1479" 
d="M76 0v351l699 777v0h-669v344h1266v-339l-715 -789v0h745v-344h-1326zM739 1622zM0 1510z" />
    <glyph glyph-name="bracketleft" unicode="[" horiz-adv-x="797" 
d="M84 1472h645v-303h-272v-1234h272v-303h-645v1840z" />
    <glyph glyph-name="backslash" unicode="\" horiz-adv-x="569" 
d="M378 -192l-446 1664h258l446 -1664h-258z" />
    <glyph glyph-name="bracketright" unicode="]" horiz-adv-x="797" 
d="M713 -368h-645v303h272v1234h-272v303h645v-1840z" />
    <glyph glyph-name="asciicircum" unicode="^" horiz-adv-x="1352" 
d="M391 594l-208 96l368 779h248l368 -779l-208 -96l-284 574v0z" />
    <glyph glyph-name="underscore" unicode="_" horiz-adv-x="1024" 
d="M0 -254v103h1024v-103h-1024z" />
    <glyph glyph-name="grave" unicode="`" horiz-adv-x="682" 
d="M295 1216l-343 304h427l197 -304h-281zM386 1216z" />
    <glyph glyph-name="a" unicode="a" 
d="M120 738q0 362 593 362q309 0 420 -94t111 -301v-26v-516q0 -98 60 -144v-19h-446l-20 116q-150 -144 -399 -144q-172 0 -279 83t-107 238q0 121 76 202q76 82 282 124q84 16 206 34q81 11 141 37q60 27 60 67q0 88 -137 88q-136 0 -148 -107h-413zM818 474
q-48 -23 -149 -44q-107 -20 -142 -51t-35 -78q0 -89 139 -89q88 0 137 52q50 52 50 171v39zM718 1212zM825 0z" />
    <glyph glyph-name="b" unicode="b" 
d="M100 0v1472h426v-516q123 144 315 144q207 0 338 -161t131 -399q0 -282 -130 -425q-129 -143 -356 -143q-239 0 -338 192v-164h-386zM513 547q0 -116 49 -188q50 -71 137 -71q86 0 135 63q50 64 50 185q0 104 -46 174t-138 70q-80 0 -134 -65q-53 -65 -53 -168z" />
    <glyph glyph-name="c" unicode="c" 
d="M835 420h433q-28 -223 -183 -336q-154 -112 -399 -112q-291 0 -455 147t-164 408q0 268 169 420q170 153 447 153q246 0 402 -115q157 -115 176 -333v0h-433v0q-2 62 -39 112t-108 50q-188 0 -188 -287q0 -269 182 -269q140 0 160 162zM683 1212zM706 0z" />
    <glyph glyph-name="d" unicode="d" 
d="M851 956v516h426v-1472h-386v148q-55 -81 -135 -129q-79 -47 -203 -47q-223 0 -355 147q-131 147 -131 395q0 244 121 415q122 171 341 171q203 0 322 -144zM493 524q0 -121 47 -179q47 -57 127 -57q90 0 143 62q54 62 54 182q0 107 -46 177q-46 71 -138 71
q-90 0 -139 -58q-48 -58 -48 -198z" />
    <glyph glyph-name="e" unicode="e" 
d="M493 441v0q0 -88 61 -149t150 -61q62 0 102 23t57 70h413q-26 -124 -148 -222q-166 -130 -442 -130q-279 0 -449 147t-170 408q0 250 165 411q166 162 446 162q281 0 456 -170t175 -489v0h-816zM493 658h390v0q0 74 -54 128q-54 55 -136 55q-93 0 -147 -48
q-53 -47 -53 -135zM669 1212zM678 0z" />
    <glyph glyph-name="f" unicode="f" horiz-adv-x="797" 
d="M16 1072h144v20q0 230 88 325t314 95h200v0v-267v0h-45q-77 0 -104 -27t-27 -89v-57h176v-244h-176v-828h-426v828h-144v244z" />
    <glyph glyph-name="g" unicode="g" 
d="M115 -64h426q0 -29 33 -49q33 -19 89 -19q80 0 128 39t48 169v92q-123 -118 -305 -118q-203 0 -335 139t-132 374q0 226 122 381q122 156 356 156q208 0 327 -171v143h373v-956q0 -273 -144 -379q-144 -105 -417 -105q-236 0 -392 77q-155 78 -177 227zM493 559
q0 -89 46 -149q46 -59 134 -59q75 0 120 57q46 57 46 160q0 231 -176 231q-170 0 -170 -240zM656 1212z" />
    <glyph glyph-name="h" unicode="h" 
d="M100 1472h426v-532q121 160 325 160q411 0 411 -460v-640h-426v568q0 197 -145 197q-75 0 -120 -48t-45 -173v-544h-426v1472z" />
    <glyph glyph-name="i" unicode="i" horiz-adv-x="682" 
d="M126 1072h426v-1072h-426v1072zM125 1521h426v-305h-426v305zM339 0z" />
    <glyph glyph-name="j" unicode="j" horiz-adv-x="682" 
d="M153 88v984h426v-1015q0 -236 -93 -337q-92 -100 -340 -100q-117 0 -186 8v304v0q152 0 172 37q21 37 21 119zM152 1521h426v-305h-426v305z" />
    <glyph glyph-name="k" unicode="k" 
d="M107 0v1472h426v-727v0l269 327h499l-396 -415v0l449 -657h-513l-225 381v0l-83 -80v-301h-426zM731 0z" />
    <glyph glyph-name="l" unicode="l" horiz-adv-x="682" 
d="M126 0v1472h426v-1472h-426zM339 1584zM339 0z" />
    <glyph glyph-name="m" unicode="m" horiz-adv-x="2048" 
d="M93 1072h393v-164q141 192 341 192q259 0 352 -192q132 192 369 192q216 0 313 -111q98 -110 98 -321v-28v-640h-426v559q0 114 -36 160q-35 46 -106 46q-152 0 -152 -230v-535h-426v544q0 113 -31 167q-30 54 -111 54q-152 0 -152 -221v-544h-426v1072z" />
    <glyph glyph-name="n" unicode="n" 
d="M120 0v1072h386v-164q147 192 364 192q412 0 412 -460v-640h-426v568q0 197 -145 197q-165 0 -165 -221v-544h-426zM706 1212zM701 0z" />
    <glyph glyph-name="o" unicode="o" 
d="M73 523q0 270 160 423q160 154 453 154q282 0 447 -151q166 -151 166 -404q0 -274 -165 -424q-164 -149 -448 -149q-276 0 -445 148q-168 149 -168 403zM499 545q0 -131 47 -209t141 -78q87 0 136 62q50 63 50 223q0 127 -52 199q-51 72 -131 72q-95 0 -143 -76t-48 -193
zM686 1212z" />
    <glyph glyph-name="p" unicode="p" 
d="M479 908q33 75 124 133q92 59 220 59q226 0 353 -158q127 -157 127 -402q0 -265 -140 -417q-139 -151 -365 -151q-182 0 -279 144v-484h-426v1440h386v-164zM512 538q0 -118 47 -184t130 -66q85 0 136 62q52 63 52 180q0 119 -51 184q-51 66 -137 66q-83 0 -130 -68
q-47 -67 -47 -174z" />
    <glyph glyph-name="q" unicode="q" 
d="M877 908v164h386v-1440h-426v484q-107 -144 -309 -144q-212 0 -344 156q-131 157 -131 417q0 238 126 396q126 159 350 159q256 0 348 -192zM479 532q0 -113 47 -179q48 -65 143 -65q81 0 131 70t50 174q0 114 -48 181t-133 67q-93 0 -142 -66q-48 -65 -48 -182z" />
    <glyph glyph-name="r" unicode="r" horiz-adv-x="909" 
d="M107 0v1072h386v-227q93 255 332 255q30 0 60 -8v-422q-48 11 -88 11q-264 0 -264 -306v-375h-426zM536 1212zM545 0z" />
    <glyph glyph-name="s" unicode="s" horiz-adv-x="1251" 
d="M63 340h406v0q0 -136 149 -136q56 0 93 23q37 24 37 72q0 42 -58 67q-57 26 -258 72q-199 42 -268 125q-68 84 -68 187q0 169 138 259q139 91 365 91q503 0 535 -336v0h-386v0q-9 50 -41 77t-90 27q-115 0 -115 -77q0 -55 136 -86l147 -32q231 -52 310 -135
q79 -82 79 -195q0 -174 -146 -273q-145 -98 -431 -98q-234 0 -380 94q-146 95 -154 274v0zM611 1212zM615 0z" />
    <glyph glyph-name="t" unicode="t" horiz-adv-x="909" 
d="M27 828v244h153v336h426v-336h208v-244h-208v-379v-36q0 -70 31 -94q32 -24 93 -24h21h55v-304q-147 -8 -235 -8q-237 0 -314 77q-77 78 -77 258v38v472h-153zM469 0z" />
    <glyph glyph-name="u" unicode="u" 
d="M100 1072h426v-571q0 -97 37 -146q38 -48 113 -48q81 0 120 57q40 58 40 197v511h426v-1072h-393v164q-50 -81 -141 -137q-90 -55 -244 -55q-384 0 -384 460v640zM681 1212zM817 0zM0 1100z" />
    <glyph glyph-name="v" unicode="v" horiz-adv-x="1251" 
d="M624 394v0l188 678h413l-368 -1072h-473l-368 1072h426z" />
    <glyph glyph-name="w" unicode="w" horiz-adv-x="1933" 
d="M40 1072h413l165 -670v0l174 670h359l173 -670v0l173 670h406l-352 -1072h-413l-173 636v0l-160 -636h-413z" />
    <glyph glyph-name="x" unicode="x" 
d="M53 0l386 565v0l-353 507h473l135 -264v0l141 264h466l-366 -507v0l373 -565h-473l-154 306v0l-155 -306h-473z" />
    <glyph glyph-name="y" unicode="y" horiz-adv-x="1251" 
d="M160 -372v301q23 -4 84 -4q140 0 140 115v0v0q-2 32 -29 104l-339 928h426l192 -664v0l185 664h413l-368 -1089q-66 -192 -169 -278q-102 -85 -340 -85q-50 0 -124 4zM634 1212zM0 1100z" />
    <glyph glyph-name="z" unicode="z" horiz-adv-x="1139" 
d="M53 0v285l482 475v0h-442v312h968v-297l-469 -463v0h489v-312h-1028zM577 1212zM0 1100z" />
    <glyph glyph-name="braceleft" unicode="{" horiz-adv-x="797" 
d="M48 570v0q83 16 121 69q39 54 39 187v382v20q0 170 78 231q79 61 298 61h68h116v0q-160 -48 -160 -249v-405q0 -140 -43 -209q-42 -69 -143 -87v0q105 -21 145 -79q41 -57 41 -185v-405q0 -151 46 -202q47 -51 114 -67v0h-100h-113q-192 0 -270 57q-77 58 -77 204v21v415
q0 111 -34 165q-33 55 -126 76z" />
    <glyph glyph-name="bar" unicode="|" horiz-adv-x="569" 
d="M160 1536h244v-2048h-244v2048z" />
    <glyph glyph-name="braceright" unicode="}" horiz-adv-x="797" 
d="M752 578v0q-87 -23 -124 -75q-36 -52 -36 -153v-20v-417v-15q0 -153 -75 -210q-74 -56 -297 -56h-87h-101v0q85 22 122 76q38 55 38 194v404q0 126 41 187q41 62 145 85q-108 17 -147 89t-39 198v407q0 200 -160 248v0q356 -18 458 -59t102 -224v-30v-381q0 -138 44 -187
q45 -49 116 -61z" />
    <glyph glyph-name="asciitilde" unicode="~" horiz-adv-x="1352" 
d="M160 466q131 246 304 246q80 0 226 -64t191 -64h12q40 0 78 36t83 108l130 -148q-83 -137 -147 -186q-64 -48 -143 -48q-116 0 -235 64t-192 64q-54 0 -95 -37q-40 -36 -82 -123z" />
    <glyph glyph-name="exclamdown" unicode="&#xa1;" horiz-adv-x="682" 
d="M459 532l102 -567v-364h-435v364l102 567h231zM554 1073v-396h-421v396h421z" />
    <glyph glyph-name="cent" unicode="&#xa2;" 
d="M1268 414q-28 -210 -178 -327q-149 -117 -403 -117q-87 0 -137 10v0l-130 -282v0h-153l144 316v0q-146 43 -245 185t-99 326q0 257 162 417q163 161 456 161q110 0 214 -24v0l120 264v0h160l-145 -318v0q88 -46 152 -138q65 -91 75 -223h-393v0l-190 -408v0
q144 0 164 158h426zM769 791v0q-33 27 -86 27q-96 0 -143 -75t-47 -217q0 -139 56 -214v0z" />
    <glyph glyph-name="sterling" unicode="&#xa3;" 
d="M239 -5l-166 326q180 122 180 271q0 35 -4 61v0h-182v185h123v0q-70 106 -70 210q0 208 157 322q158 115 420 115v0q584 0 596 -512v0h-386v0q-3 192 -188 192q-62 0 -111 -36q-49 -35 -49 -96q0 -20 10 -53q11 -32 70 -142v0h206v-185h-179v0v0q-19 -157 -147 -242v0
q62 8 99 8q75 0 182 -30t161 -30q91 0 193 95l166 -342q-58 -54 -149 -98q-90 -44 -172 -44q-113 0 -265 57q-152 58 -231 58q-76 0 -143 -25q-66 -24 -121 -65z" />
    <glyph glyph-name="currency" unicode="&#xa4;" horiz-adv-x="1352" 
d="M163 984l163 164l92 -88v0q119 76 260 76v0q148 0 267 -80v0l92 92l157 -164l-92 -91v0q79 -121 79 -264v0q0 -140 -79 -258v0l92 -91l-157 -161l-91 91v0q-123 -79 -260 -79v0q-153 0 -273 79v0l-87 -91l-163 161l88 87v0q-75 140 -75 267v0q0 151 79 266v0zM429 632
q0 -110 73 -179t177 -69q105 0 177 69q72 70 72 182q0 107 -70 177q-69 71 -178 71q-118 0 -185 -75q-66 -74 -66 -176z" />
    <glyph glyph-name="yen" unicode="&#xa5;" 
d="M1008 785v0l-99 -192v0h445v-195h-464v-398h-426v398h-464v195h448v0l-96 192v0h-352v195h246v0l-246 490h473l211 -500v0l220 500h466l-253 -490v0h237v-195h-346z" />
    <glyph glyph-name="brokenbar" unicode="&#xa6;" horiz-adv-x="569" 
d="M404 -362h-244v720h244v-720zM160 1382h244v-720h-244v720z" />
    <glyph glyph-name="section" unicode="&#xa7;" 
d="M210 41v0h319v0q6 -83 48 -123t110 -40q73 0 112 25t39 72q0 56 -73 90t-248 93q-199 65 -284 164q-84 99 -84 254q0 92 53 175q53 84 163 124q-141 114 -141 285q0 158 125 254q126 96 349 96q187 0 309 -98q122 -97 136 -286v0h-319v0q0 76 -34 111q-33 36 -100 36
q-140 0 -140 -94q0 -84 143 -134q331 -115 428 -213q97 -97 97 -264q0 -213 -197 -299q143 -109 143 -275q0 -151 -135 -252q-134 -101 -335 -101q-241 0 -371 125q-113 109 -113 275zM554 743q-120 -31 -120 -110q0 -65 106 -111l282 -122q111 18 111 109q0 42 -33 69
t-207 103z" />
    <glyph glyph-name="dieresis" unicode="&#xa8;" horiz-adv-x="682" 
d="M-64 1498h346v-266h-346v266zM410 1498h346v-266h-346v266zM346 1216z" />
    <glyph glyph-name="copyright" unicode="&#xa9;" horiz-adv-x="1638" 
d="M822 -40q-324 0 -549 227t-225 553q0 335 227 557q227 223 548 223q326 0 550 -223q224 -222 224 -557q0 -323 -228 -552q-227 -228 -547 -228zM253 740q0 -275 168 -436q168 -160 402 -160q246 0 407 161q162 162 162 435q0 253 -161 424q-160 172 -409 172
q-254 0 -412 -168q-157 -168 -157 -428zM1216 901h-176q-25 135 -190 135q-99 0 -163 -81q-63 -81 -63 -210q0 -136 62 -216q63 -80 170 -80q72 0 125 42q54 43 59 112h179q-19 -132 -116 -218q-96 -86 -242 -86q-196 0 -314 126q-118 127 -118 322q0 189 114 315
q114 127 307 127q134 0 237 -74t129 -214z" />
    <glyph glyph-name="ordfeminine" unicode="&#xaa;" horiz-adv-x="819" 
d="M47 1293q0 215 385 215q196 0 272 -53q76 -52 79 -179v-14v-315q0 -55 40 -74v-20h-293l-15 70q-100 -90 -254 -90q-115 0 -185 50q-69 50 -69 146q0 75 51 127t209 74l108 15q128 14 128 51q0 47 -91 47q-85 0 -85 -50h-280zM503 1135l-131 -32q-85 -22 -85 -60
q0 -45 95 -45q121 0 121 137z" />
    <glyph glyph-name="guillemotleft" unicode="&#xab;" 
d="M626 911v-270l-198 -123l198 -120v-264l-368 240v297zM1122 911v-270l-198 -123l198 -120v-264l-368 240v297z" />
    <glyph glyph-name="logicalnot" unicode="&#xac;" horiz-adv-x="1352" 
d="M160 749h1040v-606h-238v368h-802v238z" />
    <glyph glyph-name="hyphen" unicode="&#xad;" horiz-adv-x="682" 
d="M64 711h544v-376h-544v376z" />
    <glyph glyph-name="registered" unicode="&#xae;" horiz-adv-x="1638" 
d="M822 -40q-324 0 -549 227t-225 553q0 322 227 551t548 229q332 0 553 -227t221 -553q0 -323 -226 -552q-226 -228 -549 -228zM253 740q0 -271 160 -434q160 -162 410 -162q246 0 407 164q162 164 162 432q0 253 -161 424q-160 172 -409 172q-252 0 -411 -166
q-158 -165 -158 -430zM509 315v835h392q155 0 226 -40q105 -57 105 -217q0 -211 -230 -226v0l204 -352h-202l-188 352h-131v-352h-176zM685 1020v-229h238q146 0 146 123q0 106 -147 106h-237z" />
    <glyph glyph-name="macron" unicode="&#xaf;" horiz-adv-x="1020" 
d="M0 1636h1020v-105h-1020v105z" />
    <glyph glyph-name="degree" unicode="&#xb0;" horiz-adv-x="819" 
d="M96 1164q0 123 89 211t217 88q133 0 217 -85q85 -85 85 -219q0 -126 -90 -215q-89 -89 -214 -89q-132 0 -218 86t-86 223zM256 1162q0 -64 43 -106q44 -41 102 -41q60 0 101 37q42 37 42 101q0 60 -44 105q-43 45 -106 45q-59 0 -99 -43q-39 -42 -39 -98z" />
    <glyph glyph-name="plusminus" unicode="&#xb1;" horiz-adv-x="1352" 
d="M160 238h1038v-238h-1038v238zM160 892h400v336h238v-336h400v-238h-400v-336h-238v336h-400v238z" />
    <glyph glyph-name="twosuperior" unicode="&#xb2;" horiz-adv-x="819" 
d="M0 640q0 79 44 160q45 81 149 145q16 11 171 110q59 40 108 88t49 98q0 34 -30 60t-78 26q-134 0 -134 -159v0h-258v0q0 352 399 352q181 0 280 -75q100 -74 100 -210q0 -141 -173 -238l-150 -83l-118 -66v0h441v-208h-800v0z" />
    <glyph glyph-name="threesuperior" unicode="&#xb3;" horiz-adv-x="819" 
d="M13 942h258v0q0 -127 135 -127q53 0 87 26q34 27 34 75q0 52 -34 73q-34 22 -119 22h-9v0v150v0h23q135 0 135 91q0 38 -27 56q-27 19 -81 19q-107 0 -123 -95h-249q0 126 102 207t281 81q156 0 255 -63q100 -63 100 -180t-106 -172q66 -27 98 -74q33 -47 33 -105
q0 -150 -115 -227q-114 -77 -294 -77q-191 0 -288 86q-96 87 -96 234v0z" />
    <glyph glyph-name="acute" unicode="&#xb4;" horiz-adv-x="682" 
d="M112 1216l197 304h427l-343 -304h-281zM322 1216z" />
    <glyph glyph-name="mu" unicode="&#xb5;" 
d="M1268 1072v-1072h-393v143q-46 -72 -86 -103q-39 -30 -78 -46q-35 -15 -78 -25q-42 -9 -107 -9v-328h-426v1440h432l-6 -598q0 -98 38 -145q39 -46 114 -46q85 0 124 60q40 60 40 202v527h426z" />
    <glyph glyph-name="paragraph" unicode="&#xb6;" horiz-adv-x="1741" 
d="M512 -368v1120q-182 0 -291 92q-109 93 -109 262q0 190 118 278q119 88 355 88h47h824v-337h-102v-1503h-336v1503h-170v-1503h-336z" />
    <glyph glyph-name="cedilla" unicode="&#xb8;" horiz-adv-x="682" 
d="M48 -428l43 88q23 -4 82 -18q60 -14 104 -14q59 0 84 19q26 20 26 51q0 36 -28 55t-66 19q-35 0 -84 -17l-49 51l114 194h118l-81 -136q34 8 66 8q106 0 160 -48q55 -47 55 -112q0 -85 -75 -141q-75 -55 -197 -55q-124 0 -272 56zM354 0z" />
    <glyph glyph-name="onesuperior" unicode="&#xb9;" horiz-adv-x="819" 
d="M160 1326q247 0 283 194h211v-880h-270v512h-224v174z" />
    <glyph glyph-name="ordmasculine" unicode="&#xba;" horiz-adv-x="819" 
d="M16 1163q0 160 105 252q105 93 291 93q170 0 283 -85q113 -84 113 -247q0 -144 -101 -244q-101 -99 -292 -99q-184 0 -292 91q-107 92 -107 239zM296 1177q0 -88 29 -134q29 -45 88 -45q57 0 86 45t29 134q0 77 -30 121q-29 45 -79 45q-64 0 -94 -43q-29 -42 -29 -123z
" />
    <glyph glyph-name="guillemotright" unicode="&#xbb;" 
d="M740 134v270l198 123l-198 120v264l368 -240v-297zM244 134v270l198 123l-198 120v264l368 -240v-297z" />
    <glyph glyph-name="onequarter" unicode="&#xbc;" horiz-adv-x="2048" 
d="M78 1326q247 0 283 194h211v-880h-270v512h-224v174zM477 -30l824 1493h200l-824 -1493h-200zM1149 394l430 491h258v-509h118v-193h-118v-178h-270v178h-418v211zM1356 376v0h211v262v0z" />
    <glyph glyph-name="onehalf" unicode="&#xbd;" horiz-adv-x="2048" 
d="M78 1326q247 0 283 194h211v-880h-270v512h-224v174zM395 -30l824 1493h200l-824 -1493h-200zM1159 5q0 79 44 160q45 81 149 145q16 11 171 110q59 40 108 88t49 98q0 34 -30 60t-78 26q-134 0 -134 -159v0h-258v0q0 352 399 352q181 0 280 -75q100 -74 100 -210
q0 -141 -173 -238l-150 -83l-118 -66v0h441v-208h-800v0z" />
    <glyph glyph-name="threequarters" unicode="&#xbe;" horiz-adv-x="2048" 
d="M83 893h258v0q0 -127 135 -127q53 0 87 26q34 27 34 75q0 52 -34 73q-34 22 -119 22h-9v0v150v0h23q135 0 135 91q0 38 -27 56q-27 19 -81 19q-107 0 -123 -95h-249q0 126 102 207t281 81q156 0 255 -63q100 -63 100 -180t-106 -172q66 -27 98 -74q33 -47 33 -105
q0 -150 -115 -227q-114 -77 -294 -77q-191 0 -288 86q-96 87 -96 234v0zM559 -30l824 1493h200l-824 -1493h-200zM1151 394l430 491h258v-509h118v-193h-118v-178h-270v178h-418v211zM1358 376v0h211v262v0z" />
    <glyph glyph-name="questiondown" unicode="&#xbf;" horiz-adv-x="1251" 
d="M870 677h-421v396h421v-396zM1195 38q-9 -215 -159 -345q-151 -130 -421 -130t-407 107q-138 107 -138 314q0 63 24 116q23 53 78 95q75 56 183 127q115 75 115 150v45h380v-55q0 -123 -40 -200q-41 -77 -180 -137q-64 -29 -98 -57q-35 -29 -35 -77q0 -59 37 -88
q37 -30 111 -30q56 0 93 41q36 41 36 124h421z" />
    <glyph glyph-name="Agrave" unicode="&#xc0;" horiz-adv-x="1593" 
d="M23 0l528 1472h491l528 -1472h-483l-55 192v0h-480v0l-53 -192h-476zM644 498v0h302v0l-153 525v0zM797 1622zM1117 0zM0 1510zM706 1642l-343 304h427l197 -304h-281zM797 1642z" />
    <glyph glyph-name="Aacute" unicode="&#xc1;" horiz-adv-x="1593" 
d="M23 0l528 1472h491l528 -1472h-483l-55 192v0h-480v0l-53 -192h-476zM644 498v0h302v0l-153 525v0zM797 1622zM1117 0zM0 1510zM587 1642l197 304h427l-343 -304h-281zM797 1642z" />
    <glyph glyph-name="Acircumflex" unicode="&#xc2;" horiz-adv-x="1593" 
d="M23 0l528 1472h491l528 -1472h-483l-55 192v0h-480v0l-53 -192h-476zM644 498v0h302v0l-153 525v0zM797 1622zM1117 0zM0 1510zM389 1642l240 304h335l240 -304h-303l-105 156v0l-104 -156h-303zM797 1642z" />
    <glyph glyph-name="Atilde" unicode="&#xc3;" horiz-adv-x="1593" 
d="M23 0l528 1472h491l528 -1472h-483l-55 192v0h-480v0l-53 -192h-476zM644 498v0h302v0l-153 525v0zM797 1622zM1117 0zM0 1510zM399 1642q11 114 80 200q70 87 175 87q74 0 162 -38q88 -37 125 -37q42 0 66 19q25 20 32 52h162q-39 -271 -255 -271q-84 0 -167 37
q-83 38 -134 38q-60 0 -84 -87h-162zM797 1642z" />
    <glyph glyph-name="Adieresis" unicode="&#xc4;" horiz-adv-x="1593" 
d="M23 0l528 1472h491l528 -1472h-483l-55 192v0h-480v0l-53 -192h-476zM644 498v0h302v0l-153 525v0zM797 1622zM1117 0zM0 1510zM387 1924h346v-266h-346v266zM861 1924h346v-266h-346v266zM797 1642z" />
    <glyph glyph-name="Aring" unicode="&#xc5;" horiz-adv-x="1593" 
d="M23 0l528 1472h491l528 -1472h-483l-55 192v0h-480v0l-53 -192h-476zM644 498v0h302v0l-153 525v0zM797 1622zM1117 0zM0 1510zM560 1814q0 94 68 161q69 68 166 68q93 0 159 -68q67 -68 67 -164q0 -89 -67 -159q-66 -70 -159 -70q-97 0 -166 67q-68 68 -68 165z
M684 1812q0 -45 31 -75t76 -30q42 0 73 30q32 31 32 76q0 44 -30 74q-29 31 -73 31q-45 0 -77 -31t-32 -75zM797 1582z" />
    <glyph glyph-name="AE" unicode="&#xc6;" horiz-adv-x="2048" 
d="M8 0l496 1472h1471v-344h-594v-209h488v-344h-488v-231h624v-344h-1069v215h-389v0l-63 -215h-476zM640 521v0h296v607h-122v0z" />
    <glyph glyph-name="Ccedilla" unicode="&#xc7;" horiz-adv-x="1593" 
d="M1068 570h468q-39 -290 -228 -449q-188 -159 -477 -159q-366 0 -576 208q-210 209 -210 566q0 338 201 556q202 218 537 218q333 0 520 -160q188 -159 217 -448h-461q-10 111 -77 179q-66 69 -178 69q-276 0 -276 -424q0 -215 72 -310q73 -94 221 -94q103 0 167 64
q65 65 80 184zM791 1622zM831 0zM525 -378l43 88q23 -4 82 -18q60 -14 104 -14q59 0 84 19q26 20 26 51q0 36 -28 55t-66 19q-35 0 -84 -17l-49 51l114 194h118l-81 -136q34 8 66 8q106 0 160 -48q55 -47 55 -112q0 -85 -75 -141q-75 -55 -197 -55q-124 0 -272 56zM831 50z
" />
    <glyph glyph-name="Egrave" unicode="&#xc8;" horiz-adv-x="1479" 
d="M159 0v1472h1203v-344h-720v-209h607v-344h-607v-231h750v-344h-1233zM761 1622zM761 0zM0 1510zM670 1642l-343 304h427l197 -304h-281zM761 1642z" />
    <glyph glyph-name="Eacute" unicode="&#xc9;" horiz-adv-x="1479" 
d="M159 0v1472h1203v-344h-720v-209h607v-344h-607v-231h750v-344h-1233zM761 1622zM761 0zM0 1510zM551 1642l197 304h427l-343 -304h-281zM761 1642z" />
    <glyph glyph-name="Ecircumflex" unicode="&#xca;" horiz-adv-x="1479" 
d="M159 0v1472h1203v-344h-720v-209h607v-344h-607v-231h750v-344h-1233zM761 1622zM761 0zM0 1510zM353 1642l240 304h335l240 -304h-303l-105 156v0l-104 -156h-303zM761 1642z" />
    <glyph glyph-name="Edieresis" unicode="&#xcb;" horiz-adv-x="1479" 
d="M159 0v1472h1203v-344h-720v-209h607v-344h-607v-231h750v-344h-1233zM761 1622zM761 0zM0 1510zM351 1924h346v-266h-346v266zM825 1924h346v-266h-346v266zM761 1642z" />
    <glyph glyph-name="Igrave" unicode="&#xcc;" horiz-adv-x="797" 
d="M159 1472h483v-1472h-483v1472zM401 1622zM401 0zM0 1510zM310 1642l-343 304h427l197 -304h-281zM401 1642z" />
    <glyph glyph-name="Iacute" unicode="&#xcd;" horiz-adv-x="797" 
d="M159 1472h483v-1472h-483v1472zM401 1622zM401 0zM0 1510zM191 1642l197 304h427l-343 -304h-281zM401 1642z" />
    <glyph glyph-name="Icircumflex" unicode="&#xce;" horiz-adv-x="797" 
d="M159 1472h483v-1472h-483v1472zM401 1622zM401 0zM0 1510zM-7 1642l240 304h335l240 -304h-303l-105 156v0l-104 -156h-303zM401 1642z" />
    <glyph glyph-name="Idieresis" unicode="&#xcf;" horiz-adv-x="797" 
d="M159 1472h483v-1472h-483v1472zM401 1622zM401 0zM0 1510zM-9 1924h346v-266h-346v266zM465 1924h346v-266h-346v266zM401 1642z" />
    <glyph glyph-name="Eth" unicode="&#xd0;" horiz-adv-x="1593" 
d="M136 971v501h667q357 0 550 -183q194 -182 194 -524q0 -389 -193 -577t-573 -188h-645v568h-136v403h136zM619 971h208v-403h-208v-224h96q184 0 266 102q83 103 83 293q0 221 -84 305t-267 84h-94v-157z" />
    <glyph glyph-name="Ntilde" unicode="&#xd1;" horiz-adv-x="1706" 
d="M143 1472h453l507 -770v0v770h461v-1472h-453l-507 776v0v-776h-461v1472zM854 1622zM854 0zM0 1510zM456 1642q11 114 80 200q70 87 175 87q74 0 162 -38q88 -37 125 -37q42 0 66 19q25 20 32 52h162q-39 -271 -255 -271q-84 0 -167 37q-83 38 -134 38q-60 0 -84 -87
h-162zM854 1642z" />
    <glyph glyph-name="Ograve" unicode="&#xd2;" horiz-adv-x="1706" 
d="M83 748q0 354 216 558q217 204 554 204q348 0 558 -212q211 -211 211 -556q0 -354 -208 -567q-207 -213 -555 -213q-361 0 -569 210q-207 210 -207 576zM566 746q0 -194 73 -309t214 -115q138 0 212 106q74 107 74 311q0 178 -76 294q-75 117 -215 117q-136 0 -209 -108
q-73 -107 -73 -296zM859 1622zM768 1642l-343 304h427l197 -304h-281zM859 1642z" />
    <glyph glyph-name="Oacute" unicode="&#xd3;" horiz-adv-x="1706" 
d="M83 748q0 354 216 558q217 204 554 204q348 0 558 -212q211 -211 211 -556q0 -354 -208 -567q-207 -213 -555 -213q-361 0 -569 210q-207 210 -207 576zM566 746q0 -194 73 -309t214 -115q138 0 212 106q74 107 74 311q0 178 -76 294q-75 117 -215 117q-136 0 -209 -108
q-73 -107 -73 -296zM859 1622zM649 1642l197 304h427l-343 -304h-281zM859 1642z" />
    <glyph glyph-name="Ocircumflex" unicode="&#xd4;" horiz-adv-x="1706" 
d="M83 748q0 354 216 558q217 204 554 204q348 0 558 -212q211 -211 211 -556q0 -354 -208 -567q-207 -213 -555 -213q-361 0 -569 210q-207 210 -207 576zM566 746q0 -194 73 -309t214 -115q138 0 212 106q74 107 74 311q0 178 -76 294q-75 117 -215 117q-136 0 -209 -108
q-73 -107 -73 -296zM859 1622zM451 1642l240 304h335l240 -304h-303l-105 156v0l-104 -156h-303zM859 1642z" />
    <glyph glyph-name="Otilde" unicode="&#xd5;" horiz-adv-x="1706" 
d="M83 748q0 354 216 558q217 204 554 204q348 0 558 -212q211 -211 211 -556q0 -354 -208 -567q-207 -213 -555 -213q-361 0 -569 210q-207 210 -207 576zM566 746q0 -194 73 -309t214 -115q138 0 212 106q74 107 74 311q0 178 -76 294q-75 117 -215 117q-136 0 -209 -108
q-73 -107 -73 -296zM859 1622zM461 1642q11 114 80 200q70 87 175 87q74 0 162 -38q88 -37 125 -37q42 0 66 19q25 20 32 52h162q-39 -271 -255 -271q-84 0 -167 37q-83 38 -134 38q-60 0 -84 -87h-162zM859 1642z" />
    <glyph glyph-name="Odieresis" unicode="&#xd6;" horiz-adv-x="1706" 
d="M83 748q0 354 216 558q217 204 554 204q348 0 558 -212q211 -211 211 -556q0 -354 -208 -567q-207 -213 -555 -213q-361 0 -569 210q-207 210 -207 576zM566 746q0 -194 73 -309t214 -115q138 0 212 106q74 107 74 311q0 178 -76 294q-75 117 -215 117q-136 0 -209 -108
q-73 -107 -73 -296zM859 1622zM449 1924h346v-266h-346v266zM923 1924h346v-266h-346v266zM859 1642z" />
    <glyph glyph-name="multiply" unicode="&#xd7;" horiz-adv-x="1352" 
d="M327 8l-167 163l348 346v0l-348 348l167 167l345 -344v0l345 344l167 -167l-345 -342v0l345 -348l-167 -167l-345 345v0z" />
    <glyph glyph-name="Oslash" unicode="&#xd8;" horiz-adv-x="1706" 
d="M1243 1413v0l137 188l151 -102l-139 -188v0q119 -105 174 -260q56 -155 56 -310q0 -353 -210 -566q-209 -213 -561 -213q-238 0 -382 83v0l-144 -201l-151 97l150 204v0q-96 72 -169 232q-72 160 -72 354v15q0 358 215 561t555 203q213 0 390 -97zM1012 1095v0
q-27 26 -70 40q-42 15 -94 15q-130 0 -206 -106q-76 -105 -76 -296q0 -152 31 -224v0zM1116 930v0l-414 -561v0q49 -47 151 -47q137 0 211 119q75 120 75 304q0 122 -23 185z" />
    <glyph glyph-name="Ugrave" unicode="&#xd9;" horiz-adv-x="1706" 
d="M143 1472h483v-903q0 -125 56 -186t165 -61q105 0 164 61q60 62 60 195v894h483v-838q0 -347 -163 -510q-163 -162 -537 -162q-378 0 -545 162q-166 163 -166 510v838zM849 1622zM849 0zM0 1510zM758 1642l-343 304h427l197 -304h-281zM849 1642z" />
    <glyph glyph-name="Uacute" unicode="&#xda;" horiz-adv-x="1706" 
d="M143 1472h483v-903q0 -125 56 -186t165 -61q105 0 164 61q60 62 60 195v894h483v-838q0 -347 -163 -510q-163 -162 -537 -162q-378 0 -545 162q-166 163 -166 510v838zM849 1622zM849 0zM0 1510zM639 1642l197 304h427l-343 -304h-281zM849 1642z" />
    <glyph glyph-name="Ucircumflex" unicode="&#xdb;" horiz-adv-x="1706" 
d="M143 1472h483v-903q0 -125 56 -186t165 -61q105 0 164 61q60 62 60 195v894h483v-838q0 -347 -163 -510q-163 -162 -537 -162q-378 0 -545 162q-166 163 -166 510v838zM849 1622zM849 0zM0 1510zM441 1642l240 304h335l240 -304h-303l-105 156v0l-104 -156h-303z
M849 1642z" />
    <glyph glyph-name="Udieresis" unicode="&#xdc;" horiz-adv-x="1706" 
d="M143 1472h483v-903q0 -125 56 -186t165 -61q105 0 164 61q60 62 60 195v894h483v-838q0 -347 -163 -510q-163 -162 -537 -162q-378 0 -545 162q-166 163 -166 510v838zM849 1622zM849 0zM0 1510zM439 1924h346v-266h-346v266zM913 1924h346v-266h-346v266zM849 1642z" />
    <glyph glyph-name="Yacute" unicode="&#xdd;" horiz-adv-x="1593" 
d="M16 1472h544l249 -500v0l242 500h536l-544 -926v-546h-483v535zM802 1622zM0 1510zM592 1642l197 304h427l-343 -304h-281zM802 1642z" />
    <glyph glyph-name="Thorn" unicode="&#xde;" horiz-adv-x="1479" 
d="M596 1265h233q308 0 469 -127q162 -126 162 -367q0 -253 -159 -386q-158 -132 -445 -132h-260v-253h-483v1472h483v-207zM596 921v-324h192q95 0 142 40t47 125q0 159 -249 159h-132z" />
    <glyph glyph-name="germandbls" unicode="&#xdf;" 
d="M100 0v1004q0 508 570 508q243 0 385 -104q143 -103 143 -279q0 -206 -181 -289q129 -50 195 -140q66 -89 66 -253q0 -214 -123 -345q-122 -130 -359 -130q-85 0 -174 19v263q38 -8 66 -8q78 0 121 51q43 52 43 169q0 115 -49 170q-48 56 -165 56v232q161 0 161 147
q0 155 -140 155q-73 0 -103 -39t-30 -129v-28v-1030h-426z" />
    <glyph glyph-name="agrave" unicode="&#xe0;" 
d="M120 738q0 362 593 362q309 0 420 -94t111 -301v-26v-516q0 -98 60 -144v-19h-446l-20 116q-150 -144 -399 -144q-172 0 -279 83t-107 238q0 121 76 202q76 82 282 124q84 16 206 34q81 11 141 37q60 27 60 67q0 88 -137 88q-136 0 -148 -107h-413zM818 474
q-48 -23 -149 -44q-107 -20 -142 -51t-35 -78q0 -89 139 -89q88 0 137 52q50 52 50 171v39zM718 1212zM825 0zM627 1212l-343 304h427l197 -304h-281zM718 1212z" />
    <glyph glyph-name="aacute" unicode="&#xe1;" 
d="M120 738q0 362 593 362q309 0 420 -94t111 -301v-26v-516q0 -98 60 -144v-19h-446l-20 116q-150 -144 -399 -144q-172 0 -279 83t-107 238q0 121 76 202q76 82 282 124q84 16 206 34q81 11 141 37q60 27 60 67q0 88 -137 88q-136 0 -148 -107h-413zM818 474
q-48 -23 -149 -44q-107 -20 -142 -51t-35 -78q0 -89 139 -89q88 0 137 52q50 52 50 171v39zM718 1212zM825 0zM508 1212l197 304h427l-343 -304h-281zM718 1212z" />
    <glyph glyph-name="acircumflex" unicode="&#xe2;" 
d="M120 738q0 362 593 362q309 0 420 -94t111 -301v-26v-516q0 -98 60 -144v-19h-446l-20 116q-150 -144 -399 -144q-172 0 -279 83t-107 238q0 121 76 202q76 82 282 124q84 16 206 34q81 11 141 37q60 27 60 67q0 88 -137 88q-136 0 -148 -107h-413zM818 474
q-48 -23 -149 -44q-107 -20 -142 -51t-35 -78q0 -89 139 -89q88 0 137 52q50 52 50 171v39zM718 1212zM825 0zM310 1212l240 304h335l240 -304h-303l-105 156v0l-104 -156h-303zM718 1212z" />
    <glyph glyph-name="atilde" unicode="&#xe3;" 
d="M120 738q0 362 593 362q309 0 420 -94t111 -301v-26v-516q0 -98 60 -144v-19h-446l-20 116q-150 -144 -399 -144q-172 0 -279 83t-107 238q0 121 76 202q76 82 282 124q84 16 206 34q81 11 141 37q60 27 60 67q0 88 -137 88q-136 0 -148 -107h-413zM818 474
q-48 -23 -149 -44q-107 -20 -142 -51t-35 -78q0 -89 139 -89q88 0 137 52q50 52 50 171v39zM718 1212zM825 0zM320 1212q11 114 80 200q70 87 175 87q74 0 162 -38q88 -37 125 -37q42 0 66 19q25 20 32 52h162q-39 -271 -255 -271q-84 0 -167 37q-83 38 -134 38
q-60 0 -84 -87h-162zM718 1212z" />
    <glyph glyph-name="adieresis" unicode="&#xe4;" 
d="M120 738q0 362 593 362q309 0 420 -94t111 -301v-26v-516q0 -98 60 -144v-19h-446l-20 116q-150 -144 -399 -144q-172 0 -279 83t-107 238q0 121 76 202q76 82 282 124q84 16 206 34q81 11 141 37q60 27 60 67q0 88 -137 88q-136 0 -148 -107h-413zM818 474
q-48 -23 -149 -44q-107 -20 -142 -51t-35 -78q0 -89 139 -89q88 0 137 52q50 52 50 171v39zM718 1212zM825 0zM308 1494h346v-266h-346v266zM782 1494h346v-266h-346v266zM718 1212z" />
    <glyph glyph-name="aring" unicode="&#xe5;" 
d="M120 738q0 362 593 362q309 0 420 -94t111 -301v-26v-516q0 -98 60 -144v-19h-446l-20 116q-150 -144 -399 -144q-172 0 -279 83t-107 238q0 121 76 202q76 82 282 124q84 16 206 34q81 11 141 37q60 27 60 67q0 88 -137 88q-136 0 -148 -107h-413zM818 474
q-48 -23 -149 -44q-107 -20 -142 -51t-35 -78q0 -89 139 -89q88 0 137 52q50 52 50 171v39zM718 1212zM825 0zM481 1444q0 94 68 161q69 68 166 68q93 0 159 -68q67 -68 67 -164q0 -89 -67 -159q-66 -70 -159 -70q-97 0 -166 67q-68 68 -68 165zM605 1442q0 -45 31 -75
t76 -30q42 0 73 30q32 31 32 76q0 44 -30 74q-29 31 -73 31q-45 0 -77 -31t-32 -75zM718 1212z" />
    <glyph glyph-name="ae" unicode="&#xe6;" horiz-adv-x="2048" 
d="M988 116q-191 -144 -461 -144q-447 0 -447 329q0 135 91 218t343 116q191 27 254 50q64 24 64 67q0 42 -36 65q-36 24 -125 24q-123 0 -139 -109h-399q6 166 146 267q141 101 373 101q281 0 403 -112q122 112 344 112q244 0 399 -164q155 -163 155 -446v-49h-768
q0 -210 185 -210q131 0 164 93h386q-61 -182 -196 -267t-376 -85q-114 0 -210 38q-96 39 -150 106zM832 480q-69 -37 -170 -54q-95 -16 -126 -45q-30 -29 -30 -69q0 -47 32 -74q32 -26 92 -26q94 0 148 55t54 160v53zM1185 658h362q0 82 -51 132q-50 51 -127 51
q-83 0 -134 -53q-50 -52 -50 -130z" />
    <glyph glyph-name="ccedilla" unicode="&#xe7;" 
d="M835 420h433q-28 -223 -183 -336q-154 -112 -399 -112q-291 0 -455 147t-164 408q0 268 169 420q170 153 447 153q246 0 402 -115q157 -115 176 -333v0h-433v0q-2 62 -39 112t-108 50q-188 0 -188 -287q0 -269 182 -269q140 0 160 162zM683 1212zM706 0zM400 -428l43 88
q23 -4 82 -18q60 -14 104 -14q59 0 84 19q26 20 26 51q0 36 -28 55t-66 19q-35 0 -84 -17l-49 51l114 194h118l-81 -136q34 8 66 8q106 0 160 -48q55 -47 55 -112q0 -85 -75 -141q-75 -55 -197 -55q-124 0 -272 56zM706 0z" />
    <glyph glyph-name="egrave" unicode="&#xe8;" 
d="M493 441v0q0 -88 61 -149t150 -61q62 0 102 23t57 70h413q-26 -124 -148 -222q-166 -130 -442 -130q-279 0 -449 147t-170 408q0 250 165 411q166 162 446 162q281 0 456 -170t175 -489v0h-816zM493 658h390v0q0 74 -54 128q-54 55 -136 55q-93 0 -147 -48
q-53 -47 -53 -135zM669 1212zM678 0zM578 1212l-343 304h427l197 -304h-281zM669 1212z" />
    <glyph glyph-name="eacute" unicode="&#xe9;" 
d="M493 441v0q0 -88 61 -149t150 -61q62 0 102 23t57 70h413q-26 -124 -148 -222q-166 -130 -442 -130q-279 0 -449 147t-170 408q0 250 165 411q166 162 446 162q281 0 456 -170t175 -489v0h-816zM493 658h390v0q0 74 -54 128q-54 55 -136 55q-93 0 -147 -48
q-53 -47 -53 -135zM669 1212zM678 0zM459 1212l197 304h427l-343 -304h-281zM669 1212z" />
    <glyph glyph-name="ecircumflex" unicode="&#xea;" 
d="M493 441v0q0 -88 61 -149t150 -61q62 0 102 23t57 70h413q-26 -124 -148 -222q-166 -130 -442 -130q-279 0 -449 147t-170 408q0 250 165 411q166 162 446 162q281 0 456 -170t175 -489v0h-816zM493 658h390v0q0 74 -54 128q-54 55 -136 55q-93 0 -147 -48
q-53 -47 -53 -135zM669 1212zM678 0zM261 1212l240 304h335l240 -304h-303l-105 156v0l-104 -156h-303zM669 1212z" />
    <glyph glyph-name="edieresis" unicode="&#xeb;" 
d="M493 441v0q0 -88 61 -149t150 -61q62 0 102 23t57 70h413q-26 -124 -148 -222q-166 -130 -442 -130q-279 0 -449 147t-170 408q0 250 165 411q166 162 446 162q281 0 456 -170t175 -489v0h-816zM493 658h390v0q0 74 -54 128q-54 55 -136 55q-93 0 -147 -48
q-53 -47 -53 -135zM669 1212zM678 0zM259 1494h346v-266h-346v266zM733 1494h346v-266h-346v266zM669 1212z" />
    <glyph glyph-name="igrave" unicode="&#xec;" horiz-adv-x="682" 
d="M126 1072h426v-1072h-426v1072zM339 1212zM0 1100zM248 1212l-343 304h427l197 -304h-281zM339 1212z" />
    <glyph glyph-name="iacute" unicode="&#xed;" horiz-adv-x="682" 
d="M126 1072h426v-1072h-426v1072zM339 1212zM0 1100zM129 1212l197 304h427l-343 -304h-281zM339 1212z" />
    <glyph glyph-name="icircumflex" unicode="&#xee;" horiz-adv-x="682" 
d="M126 1072h426v-1072h-426v1072zM339 1212zM0 1100zM-69 1212l240 304h335l240 -304h-303l-105 156v0l-104 -156h-303zM339 1212z" />
    <glyph glyph-name="idieresis" unicode="&#xef;" horiz-adv-x="682" 
d="M126 1072h426v-1072h-426v1072zM339 1212zM0 1100zM-71 1494h346v-266h-346v266zM403 1494h346v-266h-346v266zM339 1212z" />
    <glyph glyph-name="eth" unicode="&#xf0;" 
d="M660 1335v0l-107 78l253 107q53 -35 105 -84v0l142 57l100 -110l-142 -56v0q288 -355 288 -783q0 -257 -157 -415q-157 -157 -456 -157q-269 0 -441 145t-172 415q0 257 146 412q146 156 364 156q138 0 249 -69q-29 116 -80 192v0l-152 -59l-87 114zM499 554
q0 -145 48 -221q48 -75 140 -75q90 0 138 76t48 218q0 128 -51 204q-50 77 -132 77q-91 0 -141 -75t-50 -204z" />
    <glyph glyph-name="ntilde" unicode="&#xf1;" 
d="M120 0v1072h386v-164q147 192 364 192q412 0 412 -460v-640h-426v568q0 197 -145 197q-165 0 -165 -221v-544h-426zM706 1212zM701 0zM308 1212q11 114 80 200q70 87 175 87q74 0 162 -38q88 -37 125 -37q42 0 66 19q25 20 32 52h162q-39 -271 -255 -271q-84 0 -167 37
q-83 38 -134 38q-60 0 -84 -87h-162zM706 1212z" />
    <glyph glyph-name="ograve" unicode="&#xf2;" 
d="M73 523q0 270 160 423q160 154 453 154q282 0 447 -151q166 -151 166 -404q0 -274 -165 -424q-164 -149 -448 -149q-276 0 -445 148q-168 149 -168 403zM499 545q0 -131 47 -209t141 -78q87 0 136 62q50 63 50 223q0 127 -52 199q-51 72 -131 72q-95 0 -143 -76t-48 -193
zM686 1212zM595 1212l-343 304h427l197 -304h-281zM686 1212z" />
    <glyph glyph-name="oacute" unicode="&#xf3;" 
d="M73 523q0 270 160 423q160 154 453 154q282 0 447 -151q166 -151 166 -404q0 -274 -165 -424q-164 -149 -448 -149q-276 0 -445 148q-168 149 -168 403zM499 545q0 -131 47 -209t141 -78q87 0 136 62q50 63 50 223q0 127 -52 199q-51 72 -131 72q-95 0 -143 -76t-48 -193
zM686 1212zM476 1212l197 304h427l-343 -304h-281zM686 1212z" />
    <glyph glyph-name="ocircumflex" unicode="&#xf4;" 
d="M73 523q0 270 160 423q160 154 453 154q282 0 447 -151q166 -151 166 -404q0 -274 -165 -424q-164 -149 -448 -149q-276 0 -445 148q-168 149 -168 403zM499 545q0 -131 47 -209t141 -78q87 0 136 62q50 63 50 223q0 127 -52 199q-51 72 -131 72q-95 0 -143 -76t-48 -193
zM686 1212zM278 1212l240 304h335l240 -304h-303l-105 156v0l-104 -156h-303zM686 1212z" />
    <glyph glyph-name="otilde" unicode="&#xf5;" 
d="M73 523q0 270 160 423q160 154 453 154q282 0 447 -151q166 -151 166 -404q0 -274 -165 -424q-164 -149 -448 -149q-276 0 -445 148q-168 149 -168 403zM499 545q0 -131 47 -209t141 -78q87 0 136 62q50 63 50 223q0 127 -52 199q-51 72 -131 72q-95 0 -143 -76t-48 -193
zM686 1212zM288 1212q11 114 80 200q70 87 175 87q74 0 162 -38q88 -37 125 -37q42 0 66 19q25 20 32 52h162q-39 -271 -255 -271q-84 0 -167 37q-83 38 -134 38q-60 0 -84 -87h-162zM686 1212z" />
    <glyph glyph-name="odieresis" unicode="&#xf6;" 
d="M73 523q0 270 160 423q160 154 453 154q282 0 447 -151q166 -151 166 -404q0 -274 -165 -424q-164 -149 -448 -149q-276 0 -445 148q-168 149 -168 403zM499 545q0 -131 47 -209t141 -78q87 0 136 62q50 63 50 223q0 127 -52 199q-51 72 -131 72q-95 0 -143 -76t-48 -193
zM686 1212zM276 1494h346v-266h-346v266zM750 1494h346v-266h-346v266zM686 1212z" />
    <glyph glyph-name="divide" unicode="&#xf7;" horiz-adv-x="1352" 
d="M563 803v240h238v-240h-238zM1201 405h-1038v238h1038v-238zM563 5v240h238v-240h-238z" />
    <glyph glyph-name="oslash" unicode="&#xf8;" 
d="M325 65v0q-252 133 -252 457q0 270 164 424t449 154q141 0 269 -48v0l84 128l100 -69l-76 -112v0q236 -152 236 -457q0 -268 -167 -419q-166 -151 -446 -151q-147 0 -255 39v0l-98 -151l-107 57zM855 666v0l-250 -386v0q32 -22 84 -22q92 0 138 72t46 212q0 59 -18 124z
M523 386v0l258 399v0q-40 29 -96 29q-186 0 -186 -269q0 -96 24 -159z" />
    <glyph glyph-name="ugrave" unicode="&#xf9;" 
d="M100 1072h426v-571q0 -97 37 -146q38 -48 113 -48q81 0 120 57q40 58 40 197v511h426v-1072h-393v164q-50 -81 -141 -137q-90 -55 -244 -55q-384 0 -384 460v640zM681 1212zM817 0zM0 1100zM590 1212l-343 304h427l197 -304h-281zM681 1212z" />
    <glyph glyph-name="uacute" unicode="&#xfa;" 
d="M100 1072h426v-571q0 -97 37 -146q38 -48 113 -48q81 0 120 57q40 58 40 197v511h426v-1072h-393v164q-50 -81 -141 -137q-90 -55 -244 -55q-384 0 -384 460v640zM681 1212zM817 0zM0 1100zM471 1212l197 304h427l-343 -304h-281zM681 1212z" />
    <glyph glyph-name="ucircumflex" unicode="&#xfb;" 
d="M100 1072h426v-571q0 -97 37 -146q38 -48 113 -48q81 0 120 57q40 58 40 197v511h426v-1072h-393v164q-50 -81 -141 -137q-90 -55 -244 -55q-384 0 -384 460v640zM681 1212zM817 0zM0 1100zM273 1212l240 304h335l240 -304h-303l-105 156v0l-104 -156h-303zM681 1212z
" />
    <glyph glyph-name="udieresis" unicode="&#xfc;" 
d="M100 1072h426v-571q0 -97 37 -146q38 -48 113 -48q81 0 120 57q40 58 40 197v511h426v-1072h-393v164q-50 -81 -141 -137q-90 -55 -244 -55q-384 0 -384 460v640zM681 1212zM817 0zM0 1100zM271 1494h346v-266h-346v266zM745 1494h346v-266h-346v266zM681 1212z" />
    <glyph glyph-name="yacute" unicode="&#xfd;" horiz-adv-x="1251" 
d="M160 -372v301q23 -4 84 -4q140 0 140 115v0v0q-2 32 -29 104l-339 928h426l192 -664v0l185 664h413l-368 -1089q-66 -192 -169 -278q-102 -85 -340 -85q-50 0 -124 4zM634 1212zM0 1100zM424 1212l197 304h427l-343 -304h-281zM634 1212z" />
    <glyph glyph-name="thorn" unicode="&#xfe;" 
d="M479 908q33 75 124 133q92 59 220 59q206 0 343 -144q137 -143 137 -416q0 -258 -136 -413q-135 -155 -369 -155q-178 0 -279 144v-484h-426v1840h386v-564zM512 538q0 -120 45 -185q46 -65 132 -65q87 0 137 67q51 67 51 175q0 121 -52 185q-52 65 -136 65
q-79 0 -128 -69t-49 -173z" />
    <glyph glyph-name="ydieresis" unicode="&#xff;" horiz-adv-x="1251" 
d="M160 -372v301q23 -4 84 -4q140 0 140 115v0v0q-2 32 -29 104l-339 928h426l192 -664v0l185 664h413l-368 -1089q-66 -192 -169 -278q-102 -85 -340 -85q-50 0 -124 4zM634 1212zM0 1100zM224 1494h346v-266h-346v266zM698 1494h346v-266h-346v266zM634 1212z" />
    <glyph glyph-name="dotlessi" unicode="&#x131;" horiz-adv-x="682" 
d="M126 1072h426v-1072h-426v1072zM339 1212zM0 1100z" />
    <glyph glyph-name="Lslash" unicode="&#x141;" 
d="M159 1472h483v-409v0l196 103v-274l-196 -105v0v-443h640v-344h-1123v533v0l-196 -103v274l196 105v0v663z" />
    <glyph glyph-name="lslash" unicode="&#x142;" horiz-adv-x="682" 
d="M126 0v442v0l-126 -124v267l126 121v0v766h426v-411v0l126 121v-267l-126 -124v0v-791h-426z" />
    <glyph glyph-name="OE" unicode="&#x152;" horiz-adv-x="2048" 
d="M2015 344v-344h-1008v138q-42 -70 -148 -123q-105 -53 -228 -53q-301 0 -459 202q-157 203 -157 584q0 324 164 543q165 219 460 219q261 0 368 -176v138h985v-344h-600v-209h494v-344h-494v-231h623zM717 1150q-127 0 -188 -126q-61 -125 -61 -317q0 -179 59 -282
t190 -103q126 0 189 105q63 106 63 338q0 385 -252 385z" />
    <glyph glyph-name="oe" unicode="&#x153;" horiz-adv-x="2048" 
d="M1026 988q186 112 389 112q259 0 409 -176q150 -175 150 -434v-49h-784v0q0 -86 45 -148q46 -62 140 -62h9q51 0 93 23q43 23 51 70h413q-36 -157 -184 -255q-148 -97 -356 -97q-102 0 -200 39t-175 105q-121 -144 -387 -144q-257 0 -412 144q-154 144 -154 411
q0 259 150 416t416 157q231 0 387 -112zM499 525q0 -138 45 -203q46 -64 144 -64q169 0 169 269q0 152 -44 219q-44 68 -125 68q-189 0 -189 -289zM1190 658h438v0q0 74 -55 128q-54 55 -161 55q-100 0 -161 -49q-61 -48 -61 -134z" />
    <glyph glyph-name="Scaron" unicode="&#x160;" horiz-adv-x="1479" 
d="M64 458h461v0q11 -72 73 -115q62 -42 144 -42h12q87 0 136 27q50 28 50 82q0 46 -53 77t-198 68l-188 50q-204 51 -305 161q-100 110 -100 276q0 204 161 336q162 132 476 132q266 0 431 -116q166 -115 196 -348v0h-461v0q-26 125 -194 125q-141 0 -141 -85
q0 -68 130 -108l285 -84q244 -70 336 -170q93 -100 93 -257q0 -229 -174 -367q-173 -138 -514 -138q-267 0 -457 135q-189 136 -199 361v0zM727 1622zM717 0zM1134 1946l-240 -304h-335l-240 304h303l104 -154v0l105 154h303zM727 1642z" />
    <glyph glyph-name="scaron" unicode="&#x161;" horiz-adv-x="1251" 
d="M63 340h406v0q0 -136 149 -136q56 0 93 23q37 24 37 72q0 42 -58 67q-57 26 -258 72q-199 42 -268 125q-68 84 -68 187q0 169 138 259q139 91 365 91q503 0 535 -336v0h-386v0q-9 50 -41 77t-90 27q-115 0 -115 -77q0 -55 136 -86l147 -32q231 -52 310 -135
q79 -82 79 -195q0 -174 -146 -273q-145 -98 -431 -98q-234 0 -380 94q-146 95 -154 274v0zM611 1212zM615 0zM1018 1516l-240 -304h-335l-240 304h303l104 -154v0l105 154h303zM611 1212z" />
    <glyph glyph-name="Ydieresis" unicode="&#x178;" horiz-adv-x="1593" 
d="M16 1472h544l249 -500v0l242 500h536l-544 -926v-546h-483v535zM802 1622zM0 1510zM392 1924h346v-266h-346v266zM866 1924h346v-266h-346v266zM802 1642z" />
    <glyph glyph-name="Zcaron" unicode="&#x17d;" horiz-adv-x="1479" 
d="M76 0v351l699 777v0h-669v344h1266v-339l-715 -789v0h745v-344h-1326zM739 1622zM0 1510zM1146 1946l-240 -304h-335l-240 304h303l104 -154v0l105 154h303zM739 1642z" />
    <glyph glyph-name="zcaron" unicode="&#x17e;" horiz-adv-x="1139" 
d="M53 0v285l482 475v0h-442v312h968v-297l-469 -463v0h489v-312h-1028zM577 1212zM0 1100zM984 1516l-240 -304h-335l-240 304h303l104 -154v0l105 154h303zM577 1212z" />
    <glyph glyph-name="florin" unicode="&#x192;" 
d="M100 -332v0l47 265q46 -27 106 -27q91 0 123 74q32 75 60 218l88 512v0h-216v244h256v0l28 161q38 208 148 306q111 99 281 99q125 0 247 -35l-40 -262q-68 23 -119 23q-56 0 -87 -27t-54 -154l-20 -111v0h224v-244h-263v0l-89 -556q-53 -302 -185 -412
q-131 -110 -293 -110q-120 0 -242 36z" />
    <glyph glyph-name="circumflex" unicode="&#x2c6;" horiz-adv-x="682" 
d="M-64 1216l240 304h335l240 -304h-303l-105 156v0l-104 -156h-303zM344 1216z" />
    <glyph glyph-name="caron" unicode="&#x2c7;" horiz-adv-x="682" 
d="M751 1520l-240 -304h-335l-240 304h303l104 -154v0l105 154h303zM344 1216z" />
    <glyph glyph-name="macron" unicode="&#x2c9;" horiz-adv-x="682" 
d="M-32 1463h768v-183h-768v183zM352 1216z" />
    <glyph glyph-name="breve" unicode="&#x2d8;" horiz-adv-x="682" 
d="M544 1531h162q0 -138 -102 -227q-102 -88 -267 -88q-351 0 -369 315h162q15 -128 212 -128q178 0 202 128zM337 1216z" />
    <glyph glyph-name="dotaccent" unicode="&#x2d9;" horiz-adv-x="682" 
d="M160 1498h346v-266h-346v266zM332 1216z" />
    <glyph glyph-name="ring" unicode="&#x2da;" horiz-adv-x="682" 
d="M112 1448q0 94 68 161q69 68 166 68q93 0 159 -68q67 -68 67 -164q0 -89 -67 -159q-66 -70 -159 -70q-97 0 -166 67q-68 68 -68 165zM236 1446q0 -45 31 -75t76 -30q42 0 73 30q32 31 32 76q0 44 -30 74q-29 31 -73 31q-45 0 -77 -31t-32 -75zM349 1216z" />
    <glyph glyph-name="ogonek" unicode="&#x2db;" horiz-adv-x="682" 
d="M312 0h184q-50 -18 -88 -57q-37 -38 -37 -78q0 -48 29 -73t67 -25q49 0 96 25v-177q-74 -31 -178 -31q-102 0 -172 51q-69 51 -69 147q0 51 34 100q34 50 134 118zM363 0z" />
    <glyph glyph-name="tilde" unicode="&#x2dc;" horiz-adv-x="682" 
d="M-48 1216q11 114 80 200q70 87 175 87q74 0 162 -38q88 -37 125 -37q42 0 66 19q25 20 32 52h162q-39 -271 -255 -271q-84 0 -167 37q-83 38 -134 38q-60 0 -84 -87h-162zM350 1216z" />
    <glyph glyph-name="hungarumlaut" unicode="&#x2dd;" horiz-adv-x="682" 
d="M80 1216l197 304h427l-343 -304h-281zM592 1216l197 304h427l-343 -304h-281zM475 1216z" />
    <glyph glyph-name="endash" unicode="&#x2013;" horiz-adv-x="1024" 
d="M0 669h1024v-284h-1024v284z" />
    <glyph glyph-name="emdash" unicode="&#x2014;" horiz-adv-x="2048" 
d="M0 669h2048v-284h-2048v284z" />
    <glyph glyph-name="quoteleft" unicode="&#x2018;" horiz-adv-x="569" 
d="M92 728v323q0 185 108 303t265 118v0v-165v0q-163 -16 -163 -203h158v-376h-368z" />
    <glyph glyph-name="quoteright" unicode="&#x2019;" horiz-adv-x="569" 
d="M477 1472v-323q0 -185 -108 -303t-265 -118v0v165v0q163 16 163 203h-158v376h368z" />
    <glyph glyph-name="quotesinglbase" unicode="&#x201a;" horiz-adv-x="569" 
d="M477 372v-323q0 -185 -108 -303t-265 -118v0v165v0q163 16 163 203h-158v376h368z" />
    <glyph glyph-name="quotedblleft" unicode="&#x201c;" horiz-adv-x="1024" 
d="M575 728v323q0 185 108 303q107 118 265 118v0v-165v0q-163 -16 -163 -203h158v-376h-368zM63 728v323q0 188 108 305q108 116 265 116v0v-165v0q-163 -16 -163 -203h158v-376h-368z" />
    <glyph glyph-name="quotedblright" unicode="&#x201d;" horiz-adv-x="1024" 
d="M449 1472v-323q0 -185 -108 -303q-107 -118 -265 -118v0v165v0q163 16 163 203h-158v376h368zM961 1472v-323q0 -188 -108 -305q-108 -116 -265 -116v0v165v0q163 16 163 203h-158v376h368z" />
    <glyph glyph-name="quotedblbase" unicode="&#x201e;" horiz-adv-x="1024" 
d="M449 372v-323q0 -185 -108 -303q-107 -118 -265 -118v0v165v0q163 16 163 203h-158v376h368zM961 372v-323q0 -188 -108 -305q-108 -116 -265 -116v0v165v0q163 16 163 203h-158v376h368z" />
    <glyph glyph-name="dagger" unicode="&#x2020;" 
d="M160 1056h320v416h400v-416h320v-323h-320v-1101h-400v1101h-320v323z" />
    <glyph glyph-name="daggerdbl" unicode="&#x2021;" 
d="M160 1104h320v368h400v-368h320v-323h-320v-458h320v-323h-320v-368h-400v368h-320v323h320v458h-320v323z" />
    <glyph glyph-name="bullet" unicode="&#x2022;" horiz-adv-x="1024" 
d="M162 740q0 143 100 243q101 101 244 101t243 -101q101 -101 101 -243q0 -148 -97 -246t-247 -98q-144 0 -244 100q-100 101 -100 244z" />
    <glyph glyph-name="ellipsis" unicode="&#x2026;" horiz-adv-x="2048" 
d="M122 422h434v-422h-434v422zM810 422h434v-422h-434v422zM1498 0v422h434v-422h-434z" />
    <glyph glyph-name="perthousand" unicode="&#x2030;" horiz-adv-x="2048" 
d="M127 -45l867 1560h173l-867 -1560h-173zM635 294q0 139 102 238q102 100 240 100q143 0 239 -100q97 -99 97 -241q0 -140 -102 -238q-101 -98 -242 -98q-139 0 -237 98q-97 99 -97 241zM881 293q0 -36 28 -65q28 -28 66 -28q35 0 63 29q29 29 29 65q0 37 -28 65
q-27 28 -62 28q-38 0 -67 -29q-29 -28 -29 -65zM1386 294q0 139 100 238q101 100 242 100q139 0 237 -101q99 -101 99 -240q0 -138 -95 -237q-94 -99 -249 -99q-139 0 -237 96q-97 97 -97 243zM1632 293q0 -38 27 -66q27 -27 67 -27q33 0 62 28q30 28 30 66q0 37 -27 65
q-26 28 -63 28q-39 0 -68 -29q-28 -29 -28 -65zM-13 1177q0 139 100 238q100 100 242 100q139 0 237 -104q99 -103 99 -237q0 -144 -95 -240q-94 -96 -249 -96q-140 0 -237 93t-97 246zM233 1176q0 -38 30 -66q30 -27 64 -27q33 0 62 28q30 28 30 66q0 41 -28 67
q-27 26 -62 26q-39 0 -68 -29q-28 -29 -28 -65z" />
    <glyph glyph-name="guilsinglleft" unicode="&#x2039;" horiz-adv-x="682" 
d="M526 911v-270l-198 -123l198 -120v-264l-368 240v297z" />
    <glyph glyph-name="guilsinglright" unicode="&#x203a;" horiz-adv-x="682" 
d="M156 134v270l198 123l-198 120v264l368 -240v-297z" />
    <glyph glyph-name="foursuperior" unicode="&#x2074;" horiz-adv-x="819" 
d="M0 1029l430 491h258v-509h118v-193h-118v-178h-270v178h-418v211zM207 1011v0h211v262v0z" />
    <glyph glyph-name="Euro" unicode="&#x20ac;" 
d="M579 930h355l-33 -165h-335v-112v0h320l-33 -165h-274q36 -198 201 -198q154 0 181 144h373q-24 -222 -174 -343t-375 -121q-487 0 -585 518h-166l27 165h121q-2 27 -2 43q0 50 2 69h-148l27 165h139q38 241 185 387q148 146 400 146q225 0 373 -126t176 -354h-373
q-23 160 -179 160q-169 0 -203 -213z" />
    <glyph glyph-name="trademark" unicode="&#x2122;" horiz-adv-x="1946" 
d="M288 640v674h-253v158h692v-158h-253v-674h-186zM826 640v832h298l171 -484v0l171 484h298v-832h-186v682l-230 -682h-106l-230 682v-682h-186z" />
    <glyph glyph-name="minus" unicode="&#x2212;" horiz-adv-x="1352" 
d="M160 405v238h1040v-238h-1040z" />
    <glyph glyph-name="fraction" unicode="&#x2215;" horiz-adv-x="342" 
d="M-342 -30l824 1493h200l-824 -1493h-200z" />
    <glyph glyph-name="periodcentered" unicode="&#x2219;" horiz-adv-x="682" 
d="M80 521q0 109 78 187q79 78 190 78q114 0 188 -74q75 -74 75 -192q0 -112 -79 -189q-79 -76 -187 -76q-112 0 -189 77q-76 78 -76 189z" />
    <glyph glyph-name="unif001" unicode="&#xf001;" 
d="M16 1072h144v29q0 196 82 303q83 108 330 108h190v-267v0v0h-63q-113 0 -113 -114v-59h176v-244h-176v-828h-426v828h-144v244zM848 1072h426v-1072h-426v1072zM847 1521h426v-305h-426v305z" />
    <glyph glyph-name="unif002" unicode="&#xf002;" 
d="M16 1072h144q0 228 79 334q80 106 333 106h190v-267v0h-73q-103 0 -103 -118v-55h176v-244h-176v-828h-426v828h-144v244zM848 0v1472h426v-1472h-426z" />
    <glyph glyph-name="glyph235" unicode="&#xb7;" horiz-adv-x="682" 
d="M80 521q0 109 78 187q79 78 190 78q114 0 188 -74q75 -74 75 -192q0 -112 -79 -189q-79 -76 -187 -76q-112 0 -189 77q-76 78 -76 189z" />
    <glyph glyph-name="glyph236" unicode="&#xa0;" horiz-adv-x="682" 
 />
    <glyph glyph-name="glyph237" unicode="&#xfb01;" 
d="M16 1072h144v29q0 196 82 303q83 108 330 108h190v-267v0v0h-63q-113 0 -113 -114v-59h176v-244h-176v-828h-426v828h-144v244zM848 1072h426v-1072h-426v1072zM847 1521h426v-305h-426v305z" />
    <glyph glyph-name="glyph238" unicode="&#xfb02;" 
d="M16 1072h144q0 228 79 334q80 106 333 106h190v-267v0h-73q-103 0 -103 -118v-55h176v-244h-176v-828h-426v828h-144v244zM848 0v1472h426v-1472h-426z" />
    <glyph glyph-name="glyph239" unicode="&#x2044;" horiz-adv-x="342" 
d="M-342 -30l824 1493h200l-824 -1493h-200z" />
  </font>
</defs>
</svg>
